<?xml version="1.0" encoding="UTF-8"?>
<svg version="1.1" xmlns="http://www.w3.org/2000/svg" width="608" height="143">
<path d="M0 0 C200.64 0 401.28 0 608 0 C608 47.19 608 94.38 608 143 C407.36 143 206.72 143 0 143 C0 95.81 0 48.62 0 0 Z " fill="#202020" transform="translate(0,0)"/>
<path d="M0 0 C5 2 5 2 6.97265625 2.9296875 C13.66469821 5.95674199 20.48138132 7.11982146 27.65649414 8.41821289 C33.37633673 9.51178347 38.14134025 11.02058277 43.125 14.14453125 C45.5583852 15.25476325 46.48684277 14.80351059 49 14 C50.19709593 13.39157114 51.37918406 12.75295929 52.546875 12.08984375 C57.56984407 9.51446854 62.74016925 8.60206511 68.25 7.5625 C76.67507553 5.86703477 84.29075336 3.89607088 92 0 C93.74053132 1.74053132 93.1365843 4.13003003 93.14526367 6.49780273 C93.15164352 7.67249619 93.15802338 8.84718964 93.16459656 10.05747986 C93.16570938 11.33659744 93.1668222 12.61571503 93.16796875 13.93359375 C93.17296135 15.88870628 93.17296135 15.88870628 93.17805481 17.88331604 C93.184052 20.64658435 93.18589412 23.40982135 93.18530273 26.1730957 C93.18520109 29.71868473 93.19885231 33.26407357 93.21607494 36.80961514 C93.22985013 40.18427799 93.22928323 43.55890309 93.23046875 46.93359375 C93.23765427 48.2106871 93.24483978 49.48778046 93.25224304 50.80357361 C93.24916641 51.98141922 93.24608978 53.15926483 93.24291992 54.37280273 C93.24434494 55.41347397 93.24576996 56.4541452 93.24723816 57.52635193 C93 60 93 60 91 62 C88.67724823 62.40047444 86.34260643 62.7397104 84 63 C84 63.66 84 64.32 84 65 C87.63 64.67 91.26 64.34 95 64 C95 46.51 95 29.02 95 11 C95.66 11 96.32 11 97 11 C97 29.15 97 47.3 97 66 C94.59454362 67.20272819 93.05003047 67.10071472 90.375 67.0625 C89.55773437 67.05347656 88.74046875 67.04445313 87.8984375 67.03515625 C87.27195312 67.02355469 86.64546875 67.01195313 86 67 C89.48079166 71.11402945 89.48079166 71.11402945 99 71 C99 53.18 99 35.36 99 17 C99.66 17 100.32 17 101 17 C101 35.81 101 54.62 101 74 C97.37 74 93.74 74 90 74 C90.495 77.465 90.495 77.465 91 81 C88.89441372 82.27839167 87.41851016 82.98731787 84.9375 83.0625 C81.69953079 81.28683947 81.15935605 78.36213255 80 75 C80 74.01 80 73.02 80 72 C76.43688596 72.11029647 72.87478855 72.24082717 69.3125 72.375 C68.30509766 72.4059375 67.29769531 72.436875 66.25976562 72.46875 C65.28330078 72.50742188 64.30683594 72.54609375 63.30078125 72.5859375 C62.40528564 72.6173584 61.50979004 72.6487793 60.5871582 72.68115234 C57.74908176 73.03092377 55.56206153 73.73789244 53 75 C52.67 75.66 52.34 76.32 52 77 C48.52674819 78.1577506 45.63932552 78.06866652 42 78 C41.79375 77.360625 41.5875 76.72125 41.375 76.0625 C40.14393026 73.70313825 40.14393026 73.70313825 37.26879883 73.37939453 C34.25160637 73.0292028 31.35953746 72.8707927 28.32421875 72.8671875 C26.70870117 72.86525391 26.70870117 72.86525391 25.06054688 72.86328125 C23.39088867 72.86908203 23.39088867 72.86908203 21.6875 72.875 C20.08165039 72.86919922 20.08165039 72.86919922 18.44335938 72.86328125 C9.23093092 72.87416421 0.24061907 73.45643417 -9 74 C-9 55.19 -9 36.38 -9 17 C-8.34 17 -7.68 17 -7 17 C-7 34.82 -7 52.64 -7 71 C0.59 70.34 8.18 69.68 16 69 C34.22966507 68.3923445 34.22966507 68.3923445 42 72 C42.33 72.66 42.66 73.32 43 74 C45.32156597 74.40729228 47.6568787 74.74438677 50 75 C50 74.01 50 73.02 50 72 C55.53934574 69.7805315 60.98932611 69.36148524 66.875 68.875 C67.84953125 68.78863281 68.8240625 68.70226562 69.828125 68.61328125 C72.21826446 68.40238659 74.60877625 68.19815363 77 68 C66.71198148 67.56580461 58.5735885 67.76585517 49 72 C45.362327 73.37311372 43.45543376 72.66376439 39.9375 71.125 C39.08027344 70.75632812 38.22304687 70.38765625 37.33984375 70.0078125 C36.56769531 69.67523438 35.79554687 69.34265625 35 69 C31.82490018 67.94163339 29.35717617 67.79756211 26.01953125 67.68359375 C24.85615234 67.64169922 23.69277344 67.59980469 22.49414062 67.55664062 C21.27919922 67.51732422 20.06425781 67.47800781 18.8125 67.4375 C17.58595703 67.39431641 16.35941406 67.35113281 15.09570312 67.30664062 C12.06391619 67.2004691 9.03204685 67.09842048 6 67 C6 66.34 6 65.68 6 65 C10.45810752 64.88265763 14.91581128 64.81236628 19.375 64.75 C20.62667969 64.71648437 21.87835938 64.68296875 23.16796875 64.6484375 C30.19720122 64.57483297 35.66186525 65.04569692 42.02758789 68.13989258 C45.03578844 69.45167504 46.92118182 68.98260155 50 68 C50.58265625 67.7525 51.1653125 67.505 51.765625 67.25 C59.6623772 64.11541134 67.64556317 64.74102205 76 65 C76 64.34 76 63.68 76 63 C62.3457526 62.83322527 62.3457526 62.83322527 49.69140625 67.16015625 C48 68 48 68 44 68 C43.154375 67.54625 42.30875 67.0925 41.4375 66.625 C32.90698863 62.59239462 23.21447249 62.66216383 13.9375 62.4375 C11.71733462 62.37777031 9.49726878 62.31417323 7.27734375 62.24609375 C6.31046631 62.22216553 5.34358887 62.1982373 4.34741211 62.17358398 C2 62 2 62 0 61 C0 40.87 0 20.74 0 0 Z " fill="#847244" transform="translate(42,34)"/>
<path d="M0 0 C2.97 0.99 5.94 1.98 9 3 C10.86757554 3.50733351 12.7421006 3.99038082 14.625 4.4375 C15.63046875 4.685 16.6359375 4.9325 17.671875 5.1875 C19.41541316 5.61315251 21.15911078 6.03818659 22.90429688 6.45703125 C24.89751603 6.93916686 26.88625921 7.43724803 28.875 7.9375 C30.69644531 8.38416016 30.69644531 8.38416016 32.5546875 8.83984375 C36.52550081 10.17695435 40.00581357 12.00581357 43 15 C43.09295815 16.44289787 43.11746513 17.89029785 43.11352539 19.33618164 C43.11344986 20.2570607 43.11337433 21.17793976 43.11329651 22.12672424 C43.10813522 23.12775681 43.10297394 24.12878937 43.09765625 25.16015625 C43.0962413 26.17975937 43.09482635 27.19936249 43.09336853 28.24986267 C43.08775097 31.52077107 43.0751955 34.79161213 43.0625 38.0625 C43.05748726 40.27408756 43.05292396 42.48567618 43.04882812 44.69726562 C43.03777584 50.13153357 43.02102063 55.56576197 43 61 C42.23196045 60.71922607 41.4639209 60.43845215 40.67260742 60.14916992 C32.08753307 57.23123639 24.34194596 56.38420021 15.3125 56.3125 C12.82936264 56.27058515 10.34628059 56.22520082 7.86328125 56.17578125 C6.78344971 56.16458252 5.70361816 56.15338379 4.59106445 56.1418457 C2 56 2 56 0 55 C0 36.85 0 18.7 0 0 Z " fill="#131312" transform="translate(44,38)"/>
<path d="M0 0 C3.30374923 2.65633252 4.14785557 5.71918623 5.4519043 9.67456055 C5.6766745 10.347995 5.9014447 11.02142944 6.13302612 11.715271 C6.87199485 13.93634882 7.59813055 16.16140033 8.32421875 18.38671875 C8.83481085 19.92968838 9.34619973 21.47239455 9.85835266 23.0148468 C11.20284963 27.07122398 12.53649588 31.13108868 13.86791992 35.19177246 C15.22898357 39.33638763 16.60027052 43.47761598 17.97070312 47.61914062 C20.6571572 55.74281247 23.33215852 63.87019682 26 72 C24.02 72.495 24.02 72.495 22 73 C21.73445313 72.28972656 21.46890625 71.57945313 21.1953125 70.84765625 C20.66550781 69.46900391 20.66550781 69.46900391 20.125 68.0625 C19.60292969 66.68771484 19.60292969 66.68771484 19.0703125 65.28515625 C18.2180914 62.85058944 18.2180914 62.85058944 16 62 C16 60.68 16 59.36 16 58 C15.01 58.33 14.02 58.66 13 59 C12.67 59.99 12.34 60.98 12 62 C9 63 9 63 7 63 C6.34 64.32 5.68 65.64 5 67 C5.495 67.495 5.495 67.495 6 68 C6.04080783 69.99958364 6.04254356 72.00045254 6 74 C4.35 74 2.7 74 1 74 C0.74605469 72.78441406 0.49210937 71.56882812 0.23046875 70.31640625 C-0.11649642 68.73161937 -0.46419042 67.14699194 -0.8125 65.5625 C-0.97814453 64.76005859 -1.14378906 63.95761719 -1.31445312 63.13085938 C-1.77699753 61.06250042 -2.37976241 59.02666263 -3 57 C-4.485 56.505 -4.485 56.505 -6 56 C-6 54.02 -6 52.04 -6 50 C-7.485 50.495 -7.485 50.495 -9 51 C-9.66 50.67 -10.32 50.34 -11 50 C-11.33 50.66 -11.66 51.32 -12 52 C-12.66 52.66 -13.32 53.32 -14 54 C-14.82659718 56.01952714 -14.82659718 56.01952714 -15.5078125 58.3515625 C-15.77207031 59.20234375 -16.03632813 60.053125 -16.30859375 60.9296875 C-16.57800781 61.81914063 -16.84742188 62.70859375 -17.125 63.625 C-17.40214844 64.5221875 -17.67929687 65.419375 -17.96484375 66.34375 C-18.64884026 68.56084214 -19.32696672 70.77956001 -20 73 C-21.32 73 -22.64 73 -24 73 C-23.37976933 69.64598355 -22.57513973 66.46019528 -21.51293945 63.2199707 C-21.06160393 61.83615959 -21.06160393 61.83615959 -20.60115051 60.4243927 C-20.11215523 58.94008003 -20.11215523 58.94008003 -19.61328125 57.42578125 C-19.27378952 56.38793991 -18.93429779 55.35009857 -18.58451843 54.2808075 C-17.49651997 50.95715526 -16.40451356 47.63483492 -15.3125 44.3125 C-14.59675351 42.12703554 -13.88125624 39.94148945 -13.16601562 37.75585938 C-11.44018676 32.48563693 -9.70785263 27.21758793 -7.97174072 21.95074463 C-7.03765071 19.11432847 -6.10730075 16.27670619 -5.17724609 13.43896484 C-4.63271733 11.78605691 -4.08797287 10.13322001 -3.54296875 8.48046875 C-3.29718582 7.72776199 -3.05140289 6.97505524 -2.798172 6.19953918 C-1.11422176 1.11422176 -1.11422176 1.11422176 0 0 Z " fill="#2A2926" transform="translate(463,39)"/>
<path d="M0 0 C0 18.15 0 36.3 0 55 C-5 57 -5 57 -8 57 C-12 51.85714286 -12 51.85714286 -12 48 C-10.33333333 46.33333333 -8.66666667 44.66666667 -7 43 C-4.6870096 38.9247312 -4.16421404 34.59260165 -5 30 C-7.01592293 25.50232335 -9.63484854 21.47358583 -14 19 C-19.03499316 17.32166895 -24.31224055 16.95375807 -29.328125 18.90625 C-33.78683073 21.48239109 -36.47244712 23.93998108 -38 29 C-38.73635711 34.62986958 -38.62859429 39.65321795 -35.38671875 44.46484375 C-30.70988397 49.64229747 -25.53357393 51.52915163 -18.6875 51.95703125 C-18.130625 51.97121094 -17.57375 51.98539063 -17 52 C-16.34 53.65 -15.68 55.3 -15 57 C-15.57443848 57.01458252 -16.14887695 57.02916504 -16.74072266 57.04418945 C-19.36945696 57.11913725 -21.99698552 57.21563994 -24.625 57.3125 C-25.98044922 57.34633789 -25.98044922 57.34633789 -27.36328125 57.38085938 C-32.67743637 57.59420137 -36.31809244 58.24550233 -41 61 C-41.66 61 -42.32 61 -43 61 C-43.12675467 54.5223479 -43.21433146 48.04501538 -43.2746582 41.56640625 C-43.29980574 39.36250864 -43.33392827 37.15869445 -43.37719727 34.95507812 C-43.43783686 31.78755114 -43.46620749 28.6211264 -43.48828125 25.453125 C-43.51408768 24.46757629 -43.5398941 23.48202759 -43.56648254 22.46661377 C-43.56928998 15.62260879 -43.56928998 15.62260879 -40.66699219 12.44848633 C-33.15393432 8.36802383 -26.21620989 6.96241242 -17.82617188 5.62695312 C-12.08983905 4.63420617 -5.30155308 0 0 0 Z " fill="#1A1713" transform="translate(132,38)"/>
<path d="M0 0 C1.20849609 0.00322266 2.41699219 0.00644531 3.66210938 0.00976562 C5.55606445 0.02233398 5.55606445 0.02233398 7.48828125 0.03515625 C9.39963867 0.04192383 9.39963867 0.04192383 11.34960938 0.04882812 C14.50004689 0.06062752 17.65039074 0.07709028 20.80078125 0.09765625 C21.13078125 1.08765625 21.46078125 2.07765625 21.80078125 3.09765625 C19.16083828 5.73759922 17.24044424 6.3216084 13.61328125 6.34765625 C9.80078125 6.09765625 9.80078125 6.09765625 8.80078125 5.09765625 C7.71796875 6.36609375 7.71796875 6.36609375 6.61328125 7.66015625 C5.68515625 8.46453125 4.75703125 9.26890625 3.80078125 10.09765625 C1.125 9.75 1.125 9.75 -1.19921875 9.09765625 C-1.13036462 13.60056405 -1.04241215 18.10254113 -0.93676758 22.60473633 C-0.90352057 24.13620684 -0.87548782 25.66779981 -0.8527832 27.19946289 C-0.81923157 29.40173512 -0.76691965 31.60288537 -0.7109375 33.8046875 C-0.70454758 34.48916458 -0.69815765 35.17364166 -0.6915741 35.87886047 C-0.59981035 38.84786463 -0.53186088 40.67298755 1.33276367 43.0534668 C2.05943237 43.57034058 2.05943237 43.57034058 2.80078125 44.09765625 C1.81078125 44.09765625 0.82078125 44.09765625 -0.19921875 44.09765625 C0.55228148 47.37539129 0.55228148 47.37539129 3.80078125 49.09765625 C3.30578125 51.57265625 3.30578125 51.57265625 2.80078125 54.09765625 C1.48078125 54.09765625 0.16078125 54.09765625 -1.19921875 54.09765625 C-0.86921875 59.70765625 -0.53921875 65.31765625 -0.19921875 71.09765625 C6.73078125 71.09765625 13.66078125 71.09765625 20.80078125 71.09765625 C20.80078125 72.41765625 20.80078125 73.73765625 20.80078125 75.09765625 C11.89078125 75.09765625 2.98078125 75.09765625 -6.19921875 75.09765625 C-6.19921875 74.43765625 -6.19921875 73.77765625 -6.19921875 73.09765625 C-6.85921875 73.09765625 -7.51921875 73.09765625 -8.19921875 73.09765625 C-8.22619012 70.49342033 -8.24604364 67.88946381 -8.26171875 65.28515625 C-8.27009766 64.54716797 -8.27847656 63.80917969 -8.28710938 63.04882812 C-8.30181703 59.79843557 -8.23453577 57.2036073 -7.19921875 54.09765625 C-7.50365773 52.42547032 -7.8398621 50.75890629 -8.19921875 49.09765625 C-8.26583568 47.46737331 -8.28461898 45.83460771 -8.26171875 44.203125 C-8.25333984 43.25824219 -8.24496094 42.31335938 -8.23632812 41.33984375 C-8.22408203 40.33179688 -8.21183594 39.32375 -8.19921875 38.28515625 C-8.11478826 25.86619914 -8.57450253 13.49893786 -9.19921875 1.09765625 C-5.90187229 -0.00145924 -3.4696313 -0.01628935 0 0 Z " fill="#372C1E" transform="translate(548.19921875,37.90234375)"/>
<path d="M0 0 C5 2 5 2 6.97265625 2.9296875 C13.66469821 5.95674199 20.48138132 7.11982146 27.65649414 8.41821289 C33.37633673 9.51178347 38.14134025 11.02058277 43.125 14.14453125 C45.5583852 15.25476325 46.48684277 14.80351059 49 14 C50.19709593 13.39157114 51.37918406 12.75295929 52.546875 12.08984375 C58.41404958 9.08162774 64.73207274 8.21650393 71.16015625 7.02148438 C78.88795852 5.48523453 84.40421688 3.16490964 92 0 C92 18.81 92 37.62 92 57 C91.67 57 91.34 57 91 57 C91 39.51 91 22.02 91 4 C87.37 5.65 83.74 7.3 80 9 C76.67504883 9.94726562 76.67504883 9.94726562 73.95703125 10.40625 C72.94576172 10.59316406 71.93449219 10.78007813 70.89257812 10.97265625 C68.82780677 11.32616815 66.76269714 11.67770957 64.69726562 12.02734375 C63.68986328 12.21425781 62.68246094 12.40117188 61.64453125 12.59375 C60.75096924 12.74521484 59.85740723 12.89667969 58.93676758 13.05273438 C54.73973336 14.40650383 51.105748 15.77106572 48 19 C46.84522738 22.51403546 46.92724827 25.87736603 47 29.55078125 C46.98912354 30.56472458 46.97824707 31.57866791 46.96704102 32.62333679 C46.94089541 35.85414035 46.96971877 39.08178085 47 42.3125 C46.99190815 44.50587575 46.98023099 46.69924142 46.96484375 48.89257812 C46.9349986 54.2622958 46.95024794 59.63046161 47 65 C47.51260376 64.7183197 48.02520752 64.4366394 48.55334473 64.14642334 C52.64189692 61.98552866 55.88800978 60.50266643 60.59375 60.390625 C61.56054688 60.35839844 62.52734375 60.32617188 63.5234375 60.29296875 C64.99683594 60.27169922 64.99683594 60.27169922 66.5 60.25 C67.51320313 60.22035156 68.52640625 60.19070312 69.5703125 60.16015625 C72.04695201 60.09006268 74.52268351 60.03707027 77 60 C76.67 61.32 76.34 62.64 76 64 C74.73285156 63.95359375 73.46570313 63.9071875 72.16015625 63.859375 C60.48149041 63.27465949 60.48149041 63.27465949 49.69140625 67.125 C48 68 48 68 44 68 C43.154375 67.54625 42.30875 67.0925 41.4375 66.625 C32.90698863 62.59239462 23.21447249 62.66216383 13.9375 62.4375 C11.71733462 62.37777031 9.49726878 62.31417323 7.27734375 62.24609375 C6.31046631 62.22216553 5.34358887 62.1982373 4.34741211 62.17358398 C2 62 2 62 0 61 C0 40.87 0 20.74 0 0 Z M2 4 C2 22.15 2 40.3 2 59 C4.71829494 60.35914747 6.92822048 60.16234253 9.96875 60.2109375 C11.78632812 60.25347656 11.78632812 60.25347656 13.640625 60.296875 C16.18215652 60.34832301 18.72384084 60.39277362 21.265625 60.4296875 C28.67271444 60.61720875 35.0469106 61.4175716 42 64 C42.99 64.33 43.98 64.66 45 65 C45.12675467 58.5223479 45.21433146 52.04501538 45.2746582 45.56640625 C45.29980574 43.36250864 45.33392827 41.15869445 45.37719727 38.95507812 C45.43783686 35.78755114 45.46620749 32.6211264 45.48828125 29.453125 C45.51408768 28.46757629 45.5398941 27.48202759 45.56648254 26.46661377 C45.66056314 20.93025238 45.66056314 20.93025238 42.70214844 16.44848633 C36.22756339 12.97778583 29.75437483 11.40461771 22.5625 10.0625 C15.88088665 8.74926853 10.10351095 7.10724194 4 4 C3.34 4 2.68 4 2 4 Z " fill="#EBE6AD" transform="translate(42,34)"/>
<path d="M0 0 C2.6875 0.3125 2.6875 0.3125 5 1 C5 1.66 5 2.32 5 3 C6.32 3 7.64 3 9 3 C9.144375 3.7425 9.28875 4.485 9.4375 5.25 C9.93059024 7.91958229 9.93059024 7.91958229 10.6875 10.125 C11 12 11 12 9 15 C8.071875 14.835 7.14375 14.67 6.1875 14.5 C3.04378647 13.92251612 3.04378647 13.92251612 0 14 C-2.125 13.625 -2.125 13.625 -4 13 C-4.33 12.34 -4.66 11.68 -5 11 C-5.66 12.98 -6.32 14.96 -7 17 C-7.66 16.67 -8.32 16.34 -9 16 C-8.979375 16.804375 -8.95875 17.60875 -8.9375 18.4375 C-9 21 -9 21 -10 22 C-9.01 22.33 -8.02 22.66 -7 23 C-7.33 24.98 -7.66 26.96 -8 29 C-7.360625 29.28875 -6.72125 29.5775 -6.0625 29.875 C-4 31 -4 31 -3 33 C-2.01 33 -1.02 33 0 33 C0.13535156 33.556875 0.27070312 34.11375 0.41015625 34.6875 C2.02328937 40.40591202 4.33339544 43.7934953 8.34765625 48.11328125 C13.59797905 54.10833068 13.36707584 60.48174304 13 68 C11.68 68 10.36 68 9 68 C8.99613281 66.74896484 8.99613281 66.74896484 8.9921875 65.47265625 C8.6402185 55.23035826 6.19396319 49.94247963 -1.1484375 42.95703125 C-3.39205576 40.86482865 -5.67451194 38.82430335 -7.9765625 36.796875 C-10.63808274 34.41821366 -12.85701857 31.86427762 -15 29 C-15.66 29.33 -16.32 29.66 -17 30 C-17.66 29.01 -18.32 28.02 -19 27 C-19.33 27 -19.66 27 -20 27 C-20.2400057 21.35986605 -19.38217407 16.45807424 -18 11 C-17.81308594 10.25105469 -17.62617188 9.50210938 -17.43359375 8.73046875 C-17.29050781 8.15941406 -17.14742188 7.58835937 -17 7 C-16.21625 6.87625 -15.4325 6.7525 -14.625 6.625 C-11.85942178 6.20882007 -11.85942178 6.20882007 -10 4 C-8.2984375 3.7834375 -8.2984375 3.7834375 -6.5625 3.5625 C-3.04671676 3.36530977 -3.04671676 3.36530977 -1.375 1.375 C-0.92125 0.92125 -0.4675 0.4675 0 0 Z " fill="#352D24" transform="translate(518,33)"/>
<path d="M0 0 C0.33 0 0.66 0 1 0 C1.04629168 7.65807215 1.08185303 15.31612984 1.10362434 22.97430992 C1.11407224 26.53012399 1.12824959 30.0858425 1.15087891 33.64160156 C1.17671832 37.727223 1.18646444 41.81274369 1.1953125 45.8984375 C1.20563507 47.17866791 1.21595764 48.45889832 1.22659302 49.77792358 C1.22674408 50.95899689 1.22689514 52.14007019 1.22705078 53.35693359 C1.231492 54.40062103 1.23593323 55.44430847 1.24050903 56.5196228 C1 59 1 59 -1 61 C-3.32275177 61.40047444 -5.65739357 61.7397104 -8 62 C-8 62.66 -8 63.32 -8 64 C-2.555 63.505 -2.555 63.505 3 63 C3 45.51 3 28.02 3 10 C3.66 10 4.32 10 5 10 C5 28.15 5 46.3 5 65 C2.59454362 66.20272819 1.05003047 66.10071472 -1.625 66.0625 C-2.44226563 66.05347656 -3.25953125 66.04445313 -4.1015625 66.03515625 C-4.72804687 66.02355469 -5.35453125 66.01195313 -6 66 C-2.51920834 70.11402945 -2.51920834 70.11402945 7 70 C7 52.18 7 34.36 7 16 C7.66 16 8.32 16 9 16 C9 34.81 9 53.62 9 73 C5.37 73 1.74 73 -2 73 C-1.67 75.31 -1.34 77.62 -1 80 C-3.35438733 81.42944945 -4.48032433 82.08661261 -7.25 81.625 C-7.8275 81.41875 -8.405 81.2125 -9 81 C-8.01 80.505 -8.01 80.505 -7 80 C-7.48210937 78.84242187 -7.96421875 77.68484375 -8.4609375 76.4921875 C-9.09906673 74.95316994 -9.73708151 73.41410492 -10.375 71.875 C-10.85066406 70.73417969 -10.85066406 70.73417969 -11.3359375 69.5703125 C-13.58093538 64.14490096 -15.67651774 58.7350898 -17 53 C-16.34 53.33 -15.68 53.66 -15 54 C-15 54.66 -15 55.32 -15 56 C-14.0409375 56.1546875 -14.0409375 56.1546875 -13.0625 56.3125 C-12.381875 56.539375 -11.70125 56.76625 -11 57 C-10.67 57.99 -10.34 58.98 -10 60 C-7.36 59.34 -4.72 58.68 -2 58 C-2.00444122 57.31761765 -2.00888245 56.63523529 -2.01345825 55.93217468 C-2.05763236 48.84355763 -2.08784178 41.75497955 -2.10986328 34.66625977 C-2.11993405 32.0191082 -2.13359136 29.37196779 -2.15087891 26.72485352 C-2.17507972 22.92461395 -2.18647228 19.12452119 -2.1953125 15.32421875 C-2.20563507 14.13664474 -2.21595764 12.94907074 -2.22659302 11.72550964 C-2.22674408 10.62459488 -2.22689514 9.52368011 -2.22705078 8.3894043 C-2.231492 7.41899704 -2.23593323 6.44858978 -2.24050903 5.44877625 C-2 3 -2 3 0 0 Z " fill="#836943" transform="translate(134,35)"/>
<path d="M0 0 C3.30374923 2.65633252 4.14785557 5.71918623 5.4519043 9.67456055 C5.6766745 10.347995 5.9014447 11.02142944 6.13302612 11.715271 C6.87199485 13.93634882 7.59813055 16.16140033 8.32421875 18.38671875 C8.83481085 19.92968838 9.34619973 21.47239455 9.85835266 23.0148468 C11.20284963 27.07122398 12.53649588 31.13108868 13.86791992 35.19177246 C15.22898357 39.33638763 16.60027052 43.47761598 17.97070312 47.61914062 C20.6571572 55.74281247 23.33215852 63.87019682 26 72 C24.02 72.495 24.02 72.495 22 73 C18.41915836 64.50665141 15.51242659 55.80779651 12.625 47.0625 C12.13706693 45.59184373 11.64902918 44.12122219 11.16088867 42.65063477 C7.67554803 32.13127081 4.27163891 21.58796221 1 11 C-2.06042199 18.34498722 -4.66125257 25.78276878 -7.109375 33.3515625 C-7.48104797 34.49160736 -7.85272095 35.63165222 -8.23565674 36.8062439 C-9.41023611 40.41148557 -10.58019058 44.01820813 -11.75 47.625 C-12.55047485 50.08473515 -13.35125312 52.54437158 -14.15234375 55.00390625 C-16.10507167 61.00146737 -18.05401506 67.00024787 -20 73 C-21.32 73 -22.64 73 -24 73 C-23.37976933 69.64598355 -22.57513973 66.46019528 -21.51293945 63.2199707 C-21.06160393 61.83615959 -21.06160393 61.83615959 -20.60115051 60.4243927 C-20.11215523 58.94008003 -20.11215523 58.94008003 -19.61328125 57.42578125 C-19.27378952 56.38793991 -18.93429779 55.35009857 -18.58451843 54.2808075 C-17.49651997 50.95715526 -16.40451356 47.63483492 -15.3125 44.3125 C-14.59675351 42.12703554 -13.88125624 39.94148945 -13.16601562 37.75585938 C-11.44018676 32.48563693 -9.70785263 27.21758793 -7.97174072 21.95074463 C-7.03765071 19.11432847 -6.10730075 16.27670619 -5.17724609 13.43896484 C-4.63271733 11.78605691 -4.08797287 10.13322001 -3.54296875 8.48046875 C-3.29718582 7.72776199 -3.05140289 6.97505524 -2.798172 6.19953918 C-1.11422176 1.11422176 -1.11422176 1.11422176 0 0 Z " fill="#AB9462" transform="translate(463,39)"/>
<path d="M0 0 C0.33 0 0.66 0 1 0 C1 17.82 1 35.64 1 54 C0.67 54 0.34 54 0 54 C0 39.48 0 24.96 0 10 C-0.99 10 -1.98 10 -3 10 C-3 28.48 -3 46.96 -3 66 C8.68166045 65.84258732 8.68166045 65.84258732 20.36254883 65.63964844 C28.39075549 65.54791776 35.31713608 65.65906515 42.7800293 69.03613281 C45.20788719 70.09026049 47.37336053 70.6772062 50 71 C51.70116376 70.05988318 53.36504293 69.05104383 55 68 C60.4682986 66.06717999 65.22891768 65.7478165 70.9375 65.875 C71.71673828 65.88402344 72.49597656 65.89304687 73.29882812 65.90234375 C75.19935447 65.92566309 77.09972008 65.96152414 79 66 C79.33 66.66 79.66 67.32 80 68 C79.36497559 68.05534912 78.72995117 68.11069824 78.07568359 68.16772461 C75.17523849 68.42190369 72.27512281 68.67967067 69.375 68.9375 C68.37597656 69.02451172 67.37695312 69.11152344 66.34765625 69.20117188 C61.52517874 69.63232053 56.76269053 70.09785214 52 71 C52 71.99 52 72.98 52 74 C49.69 74 47.38 74 45 74 C44.67 73.01 44.34 72.02 44 71 C29.04828744 65.92709752 9.84027555 69.35477063 -5 70 C-5 52.18 -5 34.36 -5 16 C-5.66 16 -6.32 16 -7 16 C-7 34.81 -7 53.62 -7 73 C-7.66 72.67 -8.32 72.34 -9 72 C-9.0508063 64.29535749 -9.08577834 56.59075838 -9.10986328 48.88598633 C-9.11990645 46.26617824 -9.13354352 43.64638131 -9.15087891 41.02661133 C-9.17520085 37.25599405 -9.18650019 33.4855253 -9.1953125 29.71484375 C-9.20563507 28.54791489 -9.21595764 27.38098602 -9.22659302 26.17869568 C-9.22846783 12.51913754 -9.22846783 12.51913754 -5.5625 8.375 C-5.046875 7.92125 -4.53125 7.4675 -4 7 C-2.54676467 4.70835967 -1.21315454 2.42630908 0 0 Z " fill="#271707" transform="translate(40,35)"/>
<path d="M0 0 C3.20346121 2.93753609 4.27381023 6.04968346 5.56640625 10.11328125 C5.80171555 10.82751755 6.03702484 11.54175385 6.27946472 12.27763367 C7.04904356 14.61988291 7.80589292 16.96603174 8.5625 19.3125 C9.09126842 20.93191971 9.62089894 22.55105817 10.15136719 24.16992188 C10.96412456 26.65136394 11.77597422 29.13307453 12.584198 31.61599731 C14.35783047 37.06236028 16.16918517 42.49455397 18.01171875 47.91796875 C18.47914525 49.29840092 18.94651328 50.67885289 19.41381836 52.05932617 C20.07679415 54.01722764 20.74127701 55.97453563 21.41116333 57.93008423 C22.02439031 59.72235387 22.62958152 61.51736695 23.234375 63.3125 C23.57694336 64.31925781 23.91951172 65.32601562 24.27246094 66.36328125 C25 69 25 69 25 73 C23.10275269 72.73594666 23.10275269 72.73594666 21 72 C20.02786255 70.36842346 20.02786255 70.36842346 19.35595703 68.22485352 C19.09533478 67.42213516 18.83471252 66.61941681 18.56619263 65.79237366 C18.29942719 64.91342941 18.03266174 64.03448517 17.7578125 63.12890625 C17.4669577 62.21858139 17.17610291 61.30825653 16.87643433 60.37034607 C15.94359723 57.43909654 15.03386521 54.50126052 14.125 51.5625 C13.52108492 49.64729585 12.91563222 47.73257583 12.30859375 45.81835938 C11.40957146 42.98092844 10.5122462 40.14304934 9.62188721 37.30288696 C6.86071101 28.49702293 3.95306457 19.74310773 1 11 C-1.77534877 17.68698509 -4.19300074 24.41003094 -6.34765625 31.3203125 C-6.64562607 32.26381561 -6.94359589 33.20731873 -7.25059509 34.17941284 C-8.19150413 37.1601532 -9.12739524 40.14243416 -10.0625 43.125 C-11.00176489 46.11451421 -11.94217936 49.10365247 -12.88511658 52.0920105 C-13.4684115 53.94116961 -14.04957074 55.7910043 -14.62818909 57.64163208 C-16.26263074 62.82988683 -18.04415785 67.92385263 -20 73 C-21.32 73 -22.64 73 -24 73 C-21.98325317 65.2849036 -19.66613695 57.71491668 -17.12890625 50.15625 C-16.76530502 49.06590454 -16.4017038 47.97555908 -16.02708435 46.85217285 C-15.26289071 44.56259312 -14.49725104 42.27349556 -13.73022461 39.98486328 C-12.56604634 36.5105834 -11.4066763 33.03472754 -10.24804688 29.55859375 C-9.5002827 27.32021804 -8.75224492 25.08193371 -8.00390625 22.84375 C-7.49120934 21.30732849 -7.49120934 21.30732849 -6.96815491 19.73986816 C-4.74761793 13.12113887 -2.41672859 6.54961123 0 0 Z " fill="#B59F6C" transform="translate(284,39)"/>
<path d="M0 0 C8.58 0 17.16 0 26 0 C26 0.99 26 1.98 26 3 C25.34 3 24.68 3 24 3 C24 3.66 24 4.32 24 5 C18.29309366 5.99250545 12.78591511 6.10477512 7 6 C7 6.99 7 7.98 7 9 C6.01 9 5.02 9 4 9 C4.09352117 14.21475559 4.19961178 19.42904614 4.31738281 24.64331055 C4.35567679 26.41732771 4.39052895 28.19142264 4.421875 29.96557617 C4.46751672 32.51509399 4.52551185 35.0640763 4.5859375 37.61328125 C4.59748871 38.40712723 4.60903992 39.20097321 4.62094116 40.01887512 C4.72355385 43.84323908 4.83064066 45.74596099 7 49 C7 49.99 7 50.98 7 52 C5.68 52 4.36 52 3 52 C3 58.6 3 65.2 3 72 C10.92 72 18.84 72 27 72 C27.33 72.99 27.66 73.98 28 75 C18.76 75 9.52 75 0 75 C0 50 0 25 0 0 Z " fill="#4E472E" transform="translate(400,38)"/>
<path d="M0 0 C1.32 0 2.64 0 4 0 C4 24.42 4 48.84 4 74 C3.01 74 2.02 74 1 74 C0.67 52.55 0.34 31.1 0 9 C-4.95 18.24 -9.9 27.48 -15 37 C-15.99 37.99 -16.98 38.98 -18 40 C-18.28198242 39.49138428 -18.56396484 38.98276855 -18.85449219 38.45874023 C-20.15253179 36.11806972 -21.45126159 33.77778284 -22.75 31.4375 C-23.1934375 30.63763672 -23.636875 29.83777344 -24.09375 29.01367188 C-24.53203125 28.22412109 -24.9703125 27.43457031 -25.421875 26.62109375 C-25.85306641 25.83976074 -26.28425781 25.05842773 -26.72851562 24.25341797 C-27.54550612 22.80548743 -28.38627249 21.3705801 -29.25585938 19.95361328 C-30.24052807 18.34314612 -31.12973171 16.67505523 -32 15 C-31.67 14.01 -31.34 13.02 -31 12 C-30.34 12 -29.68 12 -29 12 C-25.37 18.6 -21.74 25.2 -18 32 C-14.99202033 28.99202033 -13.30975024 26.09271142 -11.42578125 22.36328125 C-11.09708542 21.72384079 -10.76838959 21.08440033 -10.42973328 20.42558289 C-9.38524143 18.39060881 -8.34878764 16.35166215 -7.3125 14.3125 C-6.60404268 12.92876648 -5.89506411 11.54529971 -5.18554688 10.16210938 C-3.45097633 6.77780058 -1.72360134 3.38990757 0 0 Z " fill="#DBD49B" transform="translate(361,38)"/>
<path d="M0 0 C3.47794735 1.73897368 5.42256446 3.00261134 7.375 6.375 C8.12651216 9.53135108 8.46214398 11.76499216 8 15 C5.57184111 18.41254763 3.48478855 20.67680763 0 23 C-4.26264558 23.48256365 -6.49132744 23.26873267 -10.3125 21.25 C-14.3390786 17.87891094 -14.84716223 16.353706 -15.4375 11.125 C-15.33897037 6.33287732 -13.35822174 4.27826408 -10 1 C-6.78268449 -0.60865775 -3.4892388 -0.46696133 0 0 Z " fill="#1B1813" transform="translate(114,61)"/>
<path d="M0 0 C0.99 0 1.98 0 3 0 C3.02505615 1.30670654 3.0501123 2.61341309 3.07592773 3.9597168 C3.17020534 8.8146317 3.27037625 13.66941032 3.37231445 18.52416992 C3.41558635 20.62407235 3.45726683 22.72400821 3.49731445 24.82397461 C3.55520477 27.84499173 3.6188451 30.86584179 3.68359375 33.88671875 C3.70030624 34.82335861 3.71701874 35.75999847 3.73423767 36.72502136 C3.78931279 42.94059707 3.78931279 42.94059707 5 49 C7.52413682 50.26206841 9.34788267 50.15860578 12.171875 50.2109375 C13.22286377 50.23720215 14.27385254 50.2634668 15.35668945 50.29052734 C16.47648193 50.31840332 17.59627441 50.3462793 18.75 50.375 C43.14421825 51.17014283 43.14421825 51.17014283 50 57 C50.495 56.731875 50.99 56.46375 51.5 56.1875 C58.69724622 52.76880805 64.08007164 51.57526712 72 51.8125 C73.30517578 51.83280273 73.30517578 51.83280273 74.63671875 51.85351562 C76.75808627 51.88848322 78.87912974 51.9422747 81 52 C81 52.66 81 53.32 81 54 C79.87722656 54.03738281 78.75445312 54.07476562 77.59765625 54.11328125 C69.56500842 54.44337778 62.52173959 54.95469393 55 58 C50.67751133 59.37951766 48.67114615 58.94660846 44.72265625 57.05078125 C38.051382 54.29479335 31.50979283 54.3308267 24.375 54.25 C23.08464844 54.22035156 21.79429688 54.19070312 20.46484375 54.16015625 C17.3098352 54.09004495 14.15554055 54.03705636 11 54 C11 54.66 11 55.32 11 56 C7.37 56 3.74 56 0 56 C0 37.52 0 19.04 0 0 Z " fill="#2E220D" transform="translate(37,45)"/>
<path d="M0 0 C2.36708707 0.75991356 3.91693373 1.61128915 6 3 C6 3.99 6 4.98 6 6 C1.125 5.125 1.125 5.125 0 4 C-2.45674102 3.72235259 -2.45674102 3.72235259 -5.3125 3.6875 C-6.27800781 3.65011719 -7.24351562 3.61273438 -8.23828125 3.57421875 C-11.09133729 3.79919763 -11.09133729 3.79919763 -13.3046875 5.66796875 C-15.98648732 9.35698831 -15.8572669 12.39391036 -15.6953125 16.84765625 C-14.39772208 22.73055214 -10.29536961 26.03172032 -6 30 C-4.5324034 31.42931579 -3.07820023 32.87098744 -1.62817383 34.31811523 C-0.2590612 35.67887537 1.1297505 37.01973064 2.51953125 38.359375 C8.14458317 44.34761924 10.15835079 48.69853375 10.0625 56.75 C10.05347656 57.73484375 10.04445313 58.7196875 10.03515625 59.734375 C10.02355469 60.48203125 10.01195312 61.2296875 10 62 C8.68 62 7.36 62 6 62 C5.99613281 60.74896484 5.99613281 60.74896484 5.9921875 59.47265625 C5.64208838 49.28477193 3.24852507 43.94151713 -4.11328125 37.02734375 C-5.80227143 35.46673802 -7.50161996 33.92763697 -9.24121094 32.42358398 C-14.28973255 28.01101955 -19.4284535 22.91904771 -20.23828125 15.94921875 C-20.41972808 10.41986524 -19.73276814 7.35489616 -16 3 C-11.32060214 -1.32895837 -6.03841718 -0.62799539 0 0 Z " fill="#997F52" transform="translate(521,39)"/>
<path d="M0 0 C1.98 0.66 3.96 1.32 6 2 C6 2.66 6 3.32 6 4 C6.99 4.33 7.98 4.66 9 5 C9.66 4.34 10.32 3.68 11 3 C11.33 4.32 11.66 5.64 12 7 C11.34 7 10.68 7 10 7 C11.46522279 16.24155169 11.46522279 16.24155169 16 24 C15.625 27.125 15.625 27.125 15 30 C15.99 30 16.98 30 18 30 C18.22786458 32.05078125 18.45572917 34.1015625 18.68359375 36.15234375 C18.81886614 38.01140229 18.81886614 38.01140229 20 39 C20.04080783 40.99958364 20.04254356 43.00045254 20 45 C20.66 45.33 21.32 45.66 22 46 C22.6328125 48.06640625 22.6328125 48.06640625 23.125 50.5625 C23.29257812 51.38878906 23.46015625 52.21507812 23.6328125 53.06640625 C23.75398438 53.70449219 23.87515625 54.34257813 24 55 C23.34 55 22.68 55 22 55 C21.803992 54.40309357 21.60798401 53.80618713 21.40603638 53.19119263 C19.36922031 46.99241481 17.32403967 40.79644302 15.27392578 34.60205078 C14.50939412 32.28831089 13.74701562 29.97385838 12.98681641 27.65869141 C11.89527382 24.33567716 10.79607456 21.01528237 9.6953125 17.6953125 C9.3556546 16.65569366 9.0159967 15.61607483 8.66604614 14.54495239 C8.34586517 13.58410736 8.0256842 12.62326233 7.69580078 11.63330078 C7.41600372 10.78502716 7.13620667 9.93675354 6.84793091 9.06277466 C6.08361212 6.82683274 6.08361212 6.82683274 4 5 C-0.29 18.2 -4.58 31.4 -9 45 C-9.33 45 -9.66 45 -10 45 C-9.9278125 43.91460937 -9.855625 42.82921875 -9.78125 41.7109375 C-9.68739896 40.26563156 -9.59365463 38.82031868 -9.5 37.375 C-9.45230469 36.66214844 -9.40460938 35.94929688 -9.35546875 35.21484375 C-9.09345558 31.13492439 -8.94837744 27.09108781 -9 23 C-8.38125 22.896875 -7.7625 22.79375 -7.125 22.6875 C-4.63473516 22.12474627 -4.63473516 22.12474627 -3 19 C-2.39081832 16.72534913 -1.85741418 14.42986777 -1.375 12.125 C-1.11460937 10.91070312 -0.85421875 9.69640625 -0.5859375 8.4453125 C-0.08998156 5.52909158 0.12312593 2.94382903 0 0 Z " fill="#302B21" transform="translate(459,35)"/>
<path d="M0 0 C1.32 0.33 2.64 0.66 4 1 C5.25 4.0625 5.25 4.0625 6 7 C5.01 7.495 5.01 7.495 4 8 C3.67 29.78 3.34 51.56 3 74 C2.01 74 1.02 74 0 74 C0 49.58 0 25.16 0 0 Z " fill="#C9BC85" transform="translate(322,38)"/>
<path d="M0 0 C3.82053014 3.56582813 5.87389959 5.91177728 6.1953125 11.234375 C6.17210937 12.39453125 6.14890625 13.5546875 6.125 14.75 C6.10695313 15.92046875 6.08890625 17.0909375 6.0703125 18.296875 C6.04710937 19.18890625 6.02390625 20.0809375 6 21 C6.62390625 21.13277344 7.2478125 21.26554687 7.890625 21.40234375 C10.35007214 22.09918711 11.34517707 23.09695363 13 25 C11.60474959 27.79050082 9.69412117 28.46924934 7 30 C6.278125 30.556875 5.55625 31.11375 4.8125 31.6875 C-0.61979946 34.22257308 -7.2883085 33.52311773 -13 32 C-12.67 30.02 -12.34 28.04 -12 26 C-10.68 25.67 -9.36 25.34 -8 25 C-7.67 25.66 -7.34 26.32 -7 27 C-4.03 26.34 -1.06 25.68 2 25 C2 24.01 2 23.02 2 22 C1.34 22 0.68 22 0 22 C0 21.34 0 20.68 0 20 C0.99 20 1.98 20 3 20 C3.08133791 18.08404032 3.13934367 16.16708068 3.1875 14.25 C3.22230469 13.18265625 3.25710938 12.1153125 3.29296875 11.015625 C2.96325961 7.6218189 2.07557874 6.5931115 0 4 C0 2.68 0 1.36 0 0 Z " fill="#332B21" transform="translate(521,80)"/>
<path d="M0 0 C8.58 0 17.16 0 26 0 C26 0.99 26 1.98 26 3 C18.41 3 10.82 3 3 3 C3 17.52 3 32.04 3 47 C2.01 47 1.02 47 0 47 C0 31.49 0 15.98 0 0 Z " fill="#C4BB89" transform="translate(400,38)"/>
<path d="M0 0 C8.25 0 16.5 0 25 0 C25 0.99 25 1.98 25 3 C17.74 3 10.48 3 3 3 C3 17.52 3 32.04 3 47 C2.01 47 1.02 47 0 47 C0 31.49 0 15.98 0 0 Z " fill="#846741" transform="translate(543,38)"/>
<path d="M0 0 C8.25 0 16.5 0 25 0 C25 0.99 25 1.98 25 3 C17.74 3 10.48 3 3 3 C3 17.52 3 32.04 3 47 C2.01 47 1.02 47 0 47 C0 31.49 0 15.98 0 0 Z " fill="#7B5C36" transform="translate(172,38)"/>
<path d="M0 0 C0.99 0.33 1.98 0.66 3 1 C3 20.14 3 39.28 3 59 C1 60 -1 61 -3 62 C-3.495 62.680625 -3.99 63.36125 -4.5 64.0625 C-5.2425 65.0215625 -5.2425 65.0215625 -6 66 C-6.66 66 -7.32 66 -8 66 C-8.33 67.32 -8.66 68.64 -9 70 C-14.42669797 71.26202278 -17.15817047 70.42091476 -22 68 C-20.68 66.68 -19.36 65.36 -18 64 C-17.34 64.99 -16.68 65.98 -16 67 C-12.535 66.505 -12.535 66.505 -9 66 C-9.66 63.36 -10.32 60.72 -11 58 C-7.04 58.33 -3.08 58.66 1 59 C0.67 39.53 0.34 20.06 0 0 Z " fill="#2C1E0E" transform="translate(142,49)"/>
<path d="M0 0 C0.66 0 1.32 0 2 0 C2 17.82 2 35.64 2 54 C13.385 53.01 13.385 53.01 25 52 C30.69177956 51.92840529 36.31977774 51.86275973 42 52 C42 52.33 42 52.66 42 53 C39.525 53.495 39.525 53.495 37 54 C37 54.33 37 54.66 37 55 C24.79 55.66 12.58 56.32 0 57 C0 38.19 0 19.38 0 0 Z " fill="#7E613E" transform="translate(33,51)"/>
<path d="M0 0 C0.33 0 0.66 0 1 0 C1 22.11 1 44.22 1 67 C0.34 67 -0.32 67 -1 67 C-1.01213028 66.10464035 -1.01213028 66.10464035 -1.02450562 65.19119263 C-1.11037197 58.9945903 -1.20986693 52.79831452 -1.31738281 46.60205078 C-1.35573401 44.28765331 -1.3905759 41.97319498 -1.421875 39.65869141 C-1.4673924 36.33734336 -1.52540843 33.01641659 -1.5859375 29.6953125 C-1.59748871 28.65569366 -1.60903992 27.61607483 -1.62094116 26.54495239 C-1.64081085 25.58410736 -1.66068054 24.62326233 -1.68115234 23.63330078 C-1.69447601 22.78502716 -1.70779968 21.93675354 -1.7215271 21.06277466 C-1.81776158 18.77813881 -1.81776158 18.77813881 -4 17 C-5.65 17.66 -7.3 18.32 -9 19 C-7.6077541 14.37324343 -5.70479016 10.35313769 -3.375 6.125 C-2.74335938 4.97257812 -2.11171875 3.82015625 -1.4609375 2.6328125 C-0.97882813 1.76398437 -0.49671875 0.89515625 0 0 Z " fill="#3B3723" transform="translate(361,45)"/>
<path d="M0 0 C0.99 0 1.98 0 3 0 C3 17.82 3 35.64 3 54 C5.64 54 8.28 54 11 54 C11 54.66 11 55.32 11 56 C7.37 56 3.74 56 0 56 C0 37.52 0 19.04 0 0 Z " fill="#7A5F3A" transform="translate(37,45)"/>
<path d="M0 0 C0.99 0.33 1.98 0.66 3 1 C4.25550041 3.85315038 5.31837563 6.62379777 6.3203125 9.56640625 C6.62444061 10.43385971 6.92856873 11.30131317 7.24191284 12.1950531 C7.88455647 14.03667644 8.5213675 15.88034372 9.15283203 17.72583008 C10.11441115 20.53160301 11.0966052 23.32947923 12.08203125 26.12695312 C12.70437882 27.91883585 13.32551095 29.71114127 13.9453125 31.50390625 C14.23697296 32.33443008 14.52863342 33.16495392 14.82913208 34.02064514 C16.53405007 39.04340347 17.52040573 43.71423475 18 49 C16.10870361 48.74884033 16.10870361 48.74884033 14 48 C12.98748779 46.28094482 12.98748779 46.28094482 12.26074219 44.01855469 C11.98075378 43.17387634 11.70076538 42.329198 11.41229248 41.45892334 C10.98391083 40.07933441 10.98391083 40.07933441 10.546875 38.671875 C10.24179016 37.73071838 9.93670532 36.78956177 9.62237549 35.81988525 C8.97934591 33.82497816 8.34436871 31.82746045 7.71679688 29.82763672 C6.75654746 26.77084276 5.7712109 23.72306627 4.78125 20.67578125 C4.15995667 18.73745986 3.54011704 16.79867178 2.921875 14.859375 C2.62819031 13.94774597 2.33450562 13.03611694 2.03192139 12.09686279 C1.76454163 11.23957581 1.49716187 10.38228882 1.22167969 9.49902344 C0.98503601 8.74925232 0.74839233 7.9994812 0.50457764 7.22698975 C-0.05477421 4.75825007 -0.08683013 2.52321008 0 0 Z " fill="#C3B17A" transform="translate(291,63)"/>
<path d="M0 0 C4.35581651 -0.10007178 8.71099593 -0.17202448 13.06762695 -0.21972656 C14.54463378 -0.23964487 16.02156384 -0.26679007 17.49829102 -0.30175781 C25.74011059 -0.49180316 32.98996475 -0.3524265 40.69213867 3.03613281 C43.15169072 4.0633529 45.35468953 4.67356094 48 5 C49.70116376 4.05988318 51.36504293 3.05104383 53 2 C58.4682986 0.06717999 63.22891768 -0.2521835 68.9375 -0.125 C69.71673828 -0.11597656 70.49597656 -0.10695313 71.29882812 -0.09765625 C73.19935447 -0.07433691 75.09972008 -0.03847586 77 0 C77.495 0.99 77.495 0.99 78 2 C77.36497559 2.05534912 76.72995117 2.11069824 76.07568359 2.16772461 C73.17523849 2.42190369 70.27512281 2.67967067 67.375 2.9375 C66.37597656 3.02451172 65.37695312 3.11152344 64.34765625 3.20117188 C59.52517874 3.63232053 54.76269053 4.09785214 50 5 C50 5.99 50 6.98 50 8 C47.69 8 45.38 8 43 8 C42.505 6.515 42.505 6.515 42 5 C33.23284451 2.07121312 24.02114693 2.88878928 14.90112305 3.11645508 C12.82080953 3.16451513 10.74081951 3.19448736 8.66015625 3.22265625 C6.81369507 3.26531616 6.81369507 3.26531616 4.92993164 3.30883789 C3.9630542 3.20692139 2.99617676 3.10500488 2 3 C1.34 2.01 0.68 1.02 0 0 Z " fill="#30260D" transform="translate(42,101)"/>
<path d="M0 0 C0.66 0.33 1.32 0.66 2 1 C0.74584647 7.12829392 -0.85786783 13.03559297 -2.8203125 18.97265625 C-3.08383514 19.78117538 -3.34735779 20.58969452 -3.61886597 21.42271423 C-4.4503015 23.97061854 -5.2875391 26.51657061 -6.125 29.0625 C-6.69439747 30.80390995 -7.26341138 32.54544536 -7.83203125 34.28710938 C-9.21692981 38.52620111 -10.60703034 42.76355393 -12 47 C-13.32 47 -14.64 47 -16 47 C-15.18911922 42.12545164 -13.64725747 37.52115677 -12.12890625 32.83203125 C-11.84651596 31.95600754 -11.56412567 31.07998383 -11.2731781 30.17741394 C-10.67703213 28.33206311 -10.07934824 26.4872085 -9.48022461 24.64282227 C-8.5630063 21.81406147 -7.65536131 18.9823412 -6.74804688 16.15039062 C-6.16725094 14.35658155 -5.58589019 12.56295524 -5.00390625 10.76953125 C-4.73300674 9.92058792 -4.46210724 9.07164459 -4.18299866 8.19697571 C-3.92610764 7.41243515 -3.66921661 6.62789459 -3.40454102 5.81958008 C-3.18105484 5.12850662 -2.95756866 4.43743317 -2.72731018 3.72541809 C-2 2 -2 2 0 0 Z " fill="#B7A573" transform="translate(455,65)"/>
<path d="M0 0 C0 18.81 0 37.62 0 57 C-0.33 57 -0.66 57 -1 57 C-1 39.51 -1 22.02 -1 4 C-6.445 6.475 -6.445 6.475 -12 9 C-15.34082031 9.97900391 -15.34082031 9.97900391 -18.078125 10.4765625 C-19.09390625 10.6725 -20.1096875 10.8684375 -21.15625 11.0703125 C-22.1771875 11.25335938 -23.198125 11.43640625 -24.25 11.625 C-30.87469261 12.84447078 -36.92398917 14.03065007 -43 17 C-42.73828125 15.125 -42.73828125 15.125 -42 13 C-35.74974949 8.55537742 -26.79208564 7.92814795 -19.42138672 6.57910156 C-13.30001442 5.4057713 -5.64224137 0 0 0 Z " fill="#95794E" transform="translate(134,34)"/>
<path d="M0 0 C5 2 5 2 7.4296875 3.03515625 C12.34185665 5.09889505 16.6861324 6.53792456 22 7 C22 7.33 22 7.66 22 8 C12.98686845 9.92083131 11.51469871 8.32486305 2 4 C2 22.15 2 40.3 2 59 C2.66 59 3.32 59 4 59 C4 59.66 4 60.32 4 61 C4.66 61.33 5.32 61.66 6 62 C4.02 61.67 2.04 61.34 0 61 C0 40.87 0 20.74 0 0 Z " fill="#987749" transform="translate(42,34)"/>
<path d="M0 0 C3.72137567 3.3260647 4.67707537 7.11057223 6.1875 11.75 C6.59645508 12.92949219 6.59645508 12.92949219 7.01367188 14.1328125 C8.61123999 18.95354436 9.30529605 22.92530119 9 28 C8.34 28 7.68 28 7 28 C5.02 22.39 3.04 16.78 1 11 C-2.21261209 18.92173856 -2.21261209 18.92173856 -5 27 C-6.32 27 -7.64 27 -9 27 C-7.16677839 20.79983585 -5.28178135 14.61538877 -3.375 8.4375 C-3.15690674 7.72271484 -2.93881348 7.00792969 -2.71411133 6.27148438 C-1.1147542 1.1147542 -1.1147542 1.1147542 0 0 Z " fill="#B39E6C" transform="translate(463,39)"/>
<path d="M0 0 C6.66610037 2.35274131 9.26255759 5.08936799 13.3125 10.875 C15.00719784 16.11315695 14.49706676 20.50809688 12.1875 25.375 C10.65374226 28.32498615 9.91172069 29.05885288 7 31 C5.68 30.34 4.36 29.68 3 29 C3.804375 28.236875 4.60875 27.47375 5.4375 26.6875 C8.95829673 22.99495709 9.3395158 20.11601291 9.29296875 15.0703125 C8.8172593 11.70863236 7.12468751 9.56212317 5 7 C4.34 6.67 3.68 6.34 3 6 C2.67 6.66 2.34 7.32 2 8 C1.34 7.34 0.68 6.68 0 6 C0.33 5.34 0.66 4.68 1 4 C-6.73232013 4.49330865 -6.73232013 4.49330865 -14 7 C-9.22058824 2.06127451 -9.22058824 2.06127451 -6.0546875 1.90234375 C-4.03645833 1.93489583 -2.01822917 1.96744792 0 2 C0 1.34 0 0.68 0 0 Z " fill="#766037" transform="translate(114,55)"/>
<path d="M0 0 C4.45810752 -0.11734237 8.91581128 -0.18763372 13.375 -0.25 C14.62667969 -0.28351563 15.87835938 -0.31703125 17.16796875 -0.3515625 C24.19720122 -0.42516703 29.66186525 0.04569692 36.02758789 3.13989258 C39.03578844 4.45167504 40.92118182 3.98260155 44 3 C44.57105469 2.7525 45.14210937 2.505 45.73046875 2.25 C53.88098427 -1.02912423 62.36756043 -0.25143028 71 0 C71 0.66 71 1.32 71 2 C69.35064453 2.03867188 69.35064453 2.03867188 67.66796875 2.078125 C59.65813525 2.35391947 52.67257061 2.87136703 45.19921875 6.0625 C39.97068639 8.29135926 39.97068639 8.29135926 36.52734375 7.2578125 C35.67269531 6.88398437 34.81804687 6.51015625 33.9375 6.125 C33.08027344 5.75632812 32.22304687 5.38765625 31.33984375 5.0078125 C30.18162109 4.50894531 30.18162109 4.50894531 29 4 C25.82490018 2.94163339 23.35717617 2.79756211 20.01953125 2.68359375 C18.85615234 2.64169922 17.69277344 2.59980469 16.49414062 2.55664062 C14.67172852 2.49766602 14.67172852 2.49766602 12.8125 2.4375 C11.58595703 2.39431641 10.35941406 2.35113281 9.09570312 2.30664062 C6.06391619 2.2004691 3.03204685 2.09842048 0 2 C0 1.34 0 0.68 0 0 Z " fill="#C0B183" transform="translate(48,99)"/>
<path d="M0 0 C1.96511716 3.93023431 2.24631096 5.30421013 2.22705078 9.50292969 C2.22682419 11.15418854 2.22682419 11.15418854 2.22659302 12.83880615 C2.21627045 14.02121887 2.20594788 15.20363159 2.1953125 16.421875 C2.1924826 17.63699768 2.18965271 18.85212036 2.18673706 20.10406494 C2.17553954 23.98614335 2.15043534 27.86799129 2.125 31.75 C2.11496966 34.38150709 2.10584391 37.01301779 2.09765625 39.64453125 C2.07560157 46.09643284 2.04212804 52.54819995 2 59 C0.39620659 59.05416188 -1.20811406 59.09286638 -2.8125 59.125 C-3.70582031 59.14820313 -4.59914062 59.17140625 -5.51953125 59.1953125 C-8 59 -8 59 -11 57 C-11 56.34 -11 55.68 -11 55 C-5.555 54.505 -5.555 54.505 0 54 C0 36.18 0 18.36 0 0 Z " fill="#371E01" transform="translate(139,46)"/>
<path d="M0 0 C0.33 0 0.66 0 1 0 C1.96793015 7.26449996 2.13096548 14.36821733 2.09765625 21.69140625 C2.0962413 22.87725815 2.09482635 24.06311005 2.09336853 25.28489685 C2.08780509 29.04412439 2.0752594 32.80329069 2.0625 36.5625 C2.05748027 39.12304601 2.0529182 41.68359296 2.04882812 44.24414062 C2.03784765 50.49611437 2.02114623 56.74805281 2 63 C-0.75078884 63.91692961 -2.35948913 64.10886083 -5.1875 64.0625 C-6.445625 64.041875 -7.70375 64.02125 -9 64 C-9 63.34 -9 62.68 -9 62 C-6.36 61.01 -3.72 60.02 -1 59 C-0.67 39.53 -0.34 20.06 0 0 Z " fill="#382005" transform="translate(135,35)"/>
<path d="M0 0 C0.5625 1.9375 0.5625 1.9375 1 4 C-0.54950268 5.54950268 -2.09990594 5.21655193 -4.25390625 5.31640625 C-5.10791016 5.35830078 -5.96191406 5.40019531 -6.84179688 5.44335938 C-7.73962891 5.48267578 -8.63746094 5.52199219 -9.5625 5.5625 C-10.46419922 5.60568359 -11.36589844 5.64886719 -12.29492188 5.69335938 C-14.52978485 5.79978142 -16.76476308 5.90179988 -19 6 C-20.08794502 10.38566071 -20.12897314 14.65582765 -20.09765625 19.14453125 C-20.0962413 19.91431808 -20.09482635 20.68410492 -20.09336853 21.47721863 C-20.08779606 23.92235288 -20.07524871 26.36739368 -20.0625 28.8125 C-20.05748144 30.47591013 -20.05291915 32.1393217 -20.04882812 33.80273438 C-20.03783566 37.86852528 -20.0205901 41.93424683 -20 46 C-19.34 46.33 -18.68 46.66 -18 47 C-18 47.66 -18 48.32 -18 49 C-20.97 49.495 -20.97 49.495 -24 50 C-24.33 57.92 -24.66 65.84 -25 74 C-25.33 74 -25.66 74 -26 74 C-26.33 65.09 -26.66 56.18 -27 47 C-25.35 47 -23.7 47 -22 47 C-22 32.48 -22 17.96 -22 3 C-14.74 3 -7.48 3 0 3 C0 2.01 0 1.02 0 0 Z " fill="#241709" transform="translate(197,38)"/>
<path d="M0 0 C1.98 0 3.96 0 6 0 C6 0.66 6 1.32 6 2 C5.01 2 4.02 2 3 2 C3 8.6 3 15.2 3 22 C10.59 22 18.18 22 26 22 C26 22.66 26 23.32 26 24 C17.42 24 8.84 24 0 24 C0 16.08 0 8.16 0 0 Z " fill="#806038" transform="translate(172,88)"/>
<path d="M0 0 C1.98 0 3.96 0 6 0 C6 0.66 6 1.32 6 2 C5.01 2 4.02 2 3 2 C3 8.6 3 15.2 3 22 C10.59 22 18.18 22 26 22 C26 22.66 26 23.32 26 24 C17.42 24 8.84 24 0 24 C0 16.08 0 8.16 0 0 Z " fill="#886941" transform="translate(543,88)"/>
<path d="M0 0 C2.87525669 -0.05425013 5.74947646 -0.09379277 8.625 -0.125 C9.43324219 -0.14175781 10.24148437 -0.15851563 11.07421875 -0.17578125 C15.76331313 -0.21390397 19.64096083 0.03361956 24 2 C24.33 2.66 24.66 3.32 25 4 C27.32156597 4.40729228 29.6568787 4.74438677 32 5 C32 4.01 32 3.02 32 2 C37.75452421 -0.49428183 43.23061917 -0.22806703 49.375 -0.125 C50.90833984 -0.11146484 50.90833984 -0.11146484 52.47265625 -0.09765625 C54.98201522 -0.0742043 57.49088336 -0.04138355 60 0 C60 0.33 60 0.66 60 1 C59.13048706 1.07516846 59.13048706 1.07516846 58.2434082 1.15185547 C55.59900423 1.38497534 52.95581713 1.62987578 50.3125 1.875 C48.94448242 1.99294922 48.94448242 1.99294922 47.54882812 2.11328125 C41.04419645 2.67237655 41.04419645 2.67237655 35 5 C34.67 5.66 34.34 6.32 34 7 C30.52674819 8.1577506 27.63932552 8.06866652 24 8 C23.77328613 7.3615918 23.54657227 6.72318359 23.31298828 6.06542969 C22.1767681 3.79374802 22.1767681 3.79374802 19.75341797 3.27050781 C18.84221191 3.16577148 17.93100586 3.06103516 16.9921875 2.953125 C15.51298828 2.76943359 15.51298828 2.76943359 14.00390625 2.58203125 C12.97136719 2.47246094 11.93882813 2.36289063 10.875 2.25 C9.83472656 2.12496094 8.79445313 1.99992187 7.72265625 1.87109375 C5.14989966 1.56425122 2.57635826 1.27465966 0 1 C0 0.67 0 0.34 0 0 Z " fill="#DDD19C" transform="translate(60,104)"/>
<path d="M0 0 C0 0.66 0 1.32 0 2 C-0.65226562 2.08636719 -1.30453125 2.17273437 -1.9765625 2.26171875 C-9.00590583 3.39180492 -12.97462106 5.01200048 -17.375 10.8125 C-18.78486893 15.74704127 -18.72918436 20.17646684 -16.4375 24.75 C-13.99257336 28.56965407 -11.04093753 30.05169083 -7 32 C-5.7934375 32.61875 -5.7934375 32.61875 -4.5625 33.25 C-4.046875 33.4975 -3.53125 33.745 -3 34 C-8.73236598 34.45858928 -11.55296547 33.65645061 -16 30 C-20.46713525 25.04993121 -21.42557319 21.1616815 -21.33984375 14.63671875 C-20.68676887 9.56975846 -18.22107792 5.9510213 -14.42578125 2.6171875 C-9.81835763 -0.45442825 -5.39199569 -0.44016291 0 0 Z " fill="#D3C997" transform="translate(114,55)"/>
<path d="M0 0 C0.66 0 1.32 0 2 0 C2 18.15 2 36.3 2 55 C0.02 55.495 0.02 55.495 -2 56 C-2.495 54.515 -2.495 54.515 -3 53 C-2.01 53 -1.02 53 0 53 C0 35.51 0 18.02 0 0 Z " fill="#896D49" transform="translate(137,45)"/>
<path d="M0 0 C0.99 0 1.98 0 3 0 C3 0.66 3 1.32 3 2 C2.01 2 1.02 2 0 2 C0.14100857 4.27113803 0.28796755 6.54190725 0.4375 8.8125 C0.51871094 10.07707031 0.59992188 11.34164062 0.68359375 12.64453125 C0.87184547 15.99181893 0.87184547 15.99181893 2 19 C1.69275715 20.33958602 1.35485497 21.67223239 1 23 C0.85431597 24.95053764 0.75340533 26.90465065 0.68359375 28.859375 C0.64169922 29.97441406 0.59980469 31.08945313 0.55664062 32.23828125 C0.49766602 33.97658203 0.49766602 33.97658203 0.4375 35.75 C0.39431641 36.92433594 0.35113281 38.09867188 0.30664062 39.30859375 C0.20065206 42.20561451 0.09858362 45.10271935 0 48 C-0.66 48 -1.32 48 -2 48 C-2.0505939 41.48554795 -2.08568856 34.97114632 -2.10986328 28.45654297 C-2.11993825 26.23907579 -2.13359859 24.02162195 -2.15087891 21.80419922 C-2.17506163 18.62203688 -2.18646797 15.44004976 -2.1953125 12.2578125 C-2.20563507 11.26194122 -2.21595764 10.26606995 -2.22659302 9.24002075 C-2.22674408 8.31921722 -2.22689514 7.3984137 -2.22705078 6.44970703 C-2.231492 5.6369632 -2.23593323 4.82421936 -2.24050903 3.98684692 C-2 2 -2 2 0 0 Z " fill="#3D3A20" transform="translate(91,51)"/>
<path d="M0 0 C0 0.66 0 1.32 0 2 C-0.59167969 2.02578125 -1.18335937 2.0515625 -1.79296875 2.078125 C-7.04981899 2.45545193 -10.17748357 3.05802993 -14 7 C-15.59689041 10.19378082 -15.37348957 13.52521315 -15 17 C-13.76467542 19.84124653 -12.7444561 21.42097859 -10.3125 23.3125 C-6.832118 24.34720816 -3.62344134 24.12078138 0 24 C0 24.99 0 25.98 0 27 C-4.74559401 27.37964752 -8.06988525 27.48228172 -12.375 25.25 C-15.56552971 22.51526025 -17.7514115 20.63532241 -18.3984375 16.37890625 C-18.31756528 6.66076169 -18.31756528 6.66076169 -15 3 C-10.52660249 -0.9311675 -5.62282772 -0.29478903 0 0 Z " fill="#C7BF8D" transform="translate(115,59)"/>
<path d="M0 0 C1.98 0 3.96 0 6 0 C6 0.66 6 1.32 6 2 C4.68 2 3.36 2 2 2 C2 8.6 2 15.2 2 22 C9.59 22 17.18 22 25 22 C25 22.66 25 23.32 25 24 C16.75 24 8.5 24 0 24 C0 16.08 0 8.16 0 0 Z " fill="#DACF9B" transform="translate(401,88)"/>
<path d="M0 0 C2.62286801 2.29848014 3.71066824 4.32266849 4.859375 7.59765625 C5.17003906 8.48130859 5.48070312 9.36496094 5.80078125 10.27539062 C6.11402344 11.19513672 6.42726563 12.11488281 6.75 13.0625 C7.24306641 14.44791992 7.24306641 14.44791992 7.74609375 15.86132812 C9.51539982 20.97141254 9.51539982 20.97141254 10 23 C9.67 23.66 9.34 24.32 9 25 C8.34 24.67 7.68 24.34 7 24 C6.67 24.66 6.34 25.32 6 26 C5.66226562 24.92878906 5.32453125 23.85757813 4.9765625 22.75390625 C4.52643751 21.35664325 4.07589504 19.95951469 3.625 18.5625 C3.40328125 17.85544922 3.1815625 17.14839844 2.953125 16.41992188 C2.35897394 14.5937811 1.68450381 12.79422968 1 11 C0.34 10.67 -0.32 10.34 -1 10 C-1.125 2.25 -1.125 2.25 0 0 Z " fill="#B9A571" transform="translate(284,39)"/>
<path d="M0 0 C-0.33 16.83 -0.66 33.66 -1 51 C-1.99 51.495 -1.99 51.495 -3 52 C-2.99476318 51.30777344 -2.98952637 50.61554688 -2.98413086 49.90234375 C-2.87788884 33.57065946 -3.15630665 17.31065681 -4 1 C-1 0 -1 0 0 0 Z " fill="#302B26" transform="translate(543,38)"/>
<path d="M0 0 C1.671875 1.40234375 1.671875 1.40234375 3 4 C2.51797939 7.32767494 1.37780577 10.40416996 0.25 13.5625 C-0.04132813 14.42552734 -0.33265625 15.28855469 -0.6328125 16.17773438 C-1.40531222 18.45802598 -2.20018428 20.7291926 -3 23 C-3.33 23.99 -3.66 24.98 -4 26 C-5.32 26 -6.64 26 -8 26 C-5.74603165 17.185701 -2.9375631 8.60369272 0 0 Z " fill="#AD9864" transform="translate(268,86)"/>
<path d="M0 0 C0.99 0.495 0.99 0.495 2 1 C2.89642967 3.85227621 3.03044542 5.81917127 2.53236389 8.77749634 C1.99549772 12.02725319 1.84169842 15.0811109 1.79467773 18.37255859 C1.77473251 19.61339203 1.75478729 20.85422546 1.73423767 22.13265991 C1.71725879 23.47125121 1.70037979 24.80984377 1.68359375 26.1484375 C1.66299822 27.52992335 1.6420011 28.91140327 1.62062073 30.2928772 C1.56566822 33.91281298 1.51614176 37.53280308 1.46777344 41.15283203 C1.41736139 44.85323875 1.36177862 48.55356747 1.30664062 52.25390625 C1.19938759 59.50253795 1.097871 66.75123491 1 74 C0.67 74 0.34 74 0 74 C0 49.58 0 25.16 0 0 Z " fill="#29240D" transform="translate(365,38)"/>
<path d="M0 0 C0 0.66 0 1.32 0 2 C-1.12277344 2.03738281 -2.24554688 2.07476562 -3.40234375 2.11328125 C-11.43499158 2.44337778 -18.47826041 2.95469393 -26 6 C-32.08863612 7.94318174 -36.45559155 5.55305765 -42 3 C-40.1875 1.9140625 -40.1875 1.9140625 -38 1 C-35.96726926 1.93166826 -33.96615661 2.9349985 -32 4 C-27.99358199 4 -27.55806294 3.87624661 -24.4375 2 C-16.98910234 -1.5732178 -8.04563175 -0.29465182 0 0 Z " fill="#403615" transform="translate(118,97)"/>
<path d="M0 0 C1.75 0.125 1.75 0.125 4 1 C8.166647 6.35711757 9.14169639 10.09750329 9.0625 16.75 C9.05347656 17.73484375 9.04445313 18.7196875 9.03515625 19.734375 C9.02355469 20.48203125 9.01195312 21.2296875 9 22 C7.68 22 6.36 22 5 22 C4.97421875 21.13117188 4.9484375 20.26234375 4.921875 19.3671875 C4.58891546 12.60205505 4.30056412 8.27165925 0 3 C0 2.01 0 1.02 0 0 Z " fill="#967949" transform="translate(522,79)"/>
<path d="M0 0 C0.33 0 0.66 0 1 0 C1 16.5 1 33 1 50 C3.64 50.33 6.28 50.66 9 51 C7.875 52.5 7.875 52.5 6 54 C4.02 54 2.04 54 0 54 C0 36.18 0 18.36 0 0 Z " fill="#210D01" transform="translate(36,51)"/>
<path d="M0 0 C11.46025272 -0.68457262 21.32104944 1.81622603 31 8 C30.01 8.495 30.01 8.495 29 9 C28.67 9.66 28.34 10.32 28 11 C27.53779053 10.66444092 27.07558105 10.32888184 26.59936523 9.9831543 C21.23197107 6.33004078 16.41807046 4.87748748 10.0625 3.8125 C8.36454193 3.51405561 6.6678215 3.20845074 4.97265625 2.89453125 C3.86289429 2.70661011 3.86289429 2.70661011 2.73071289 2.51489258 C2.15957764 2.34497803 1.58844238 2.17506348 1 2 C0.67 1.34 0.34 0.68 0 0 Z " fill="#B3A472" transform="translate(58,42)"/>
<path d="M0 0 C0.33 0.99 0.66 1.98 1 3 C0.67 3.33 0.34 3.66 0 4 C-0.15988491 6.51880517 -0.25934225 9.01342266 -0.31640625 11.53515625 C-0.33718735 12.28840683 -0.35796844 13.04165741 -0.37937927 13.81773376 C-0.44495425 16.2325599 -0.50379621 18.64749798 -0.5625 21.0625 C-0.6056777 22.69597529 -0.64929173 24.3294391 -0.69335938 25.96289062 C-0.80064362 29.97514464 -0.90188821 33.98751164 -1 38 C-1.66 38 -2.32 38 -3 38 C-3.0740421 32.90970056 -3.12855008 27.81971308 -3.16479492 22.72900391 C-3.1799009 20.99652651 -3.20038694 19.26408746 -3.22631836 17.53173828 C-3.26262321 15.04450022 -3.27970765 12.55776674 -3.29296875 10.0703125 C-3.30845261 9.29317902 -3.32393646 8.51604553 -3.33988953 7.71536255 C-3.34057617 5.53173828 -3.34057617 5.53173828 -3 2 C-2.01 1.34 -1.02 0.68 0 0 Z " fill="#EBE7B4" transform="translate(90,49)"/>
<path d="M0 0 C1.98 0 3.96 0 6 0 C6.33 0.66 6.66 1.32 7 2 C6.01 2.495 6.01 2.495 5 3 C9.53701494 4.45184478 13.18061476 5.23509196 18 5 C15.8125 7.5625 15.8125 7.5625 13 10 C8.95186019 10.10940918 5.52287626 7.82455592 2.00390625 5.98828125 C-0.58352999 4.71221621 -3.24040164 3.82787951 -6 3 C-6 2.67 -6 2.34 -6 2 C-4.02 2 -2.04 2 0 2 C0 1.34 0 0.68 0 0 Z " fill="#231C10" transform="translate(77,40)"/>
<path d="M0 0 C0.66 0 1.32 0 2 0 C3.87062493 3.26168237 5.71857576 6.53566022 7.5625 9.8125 C8.09552734 10.74126953 8.62855469 11.67003906 9.17773438 12.62695312 C9.67724609 13.51962891 10.17675781 14.41230469 10.69140625 15.33203125 C11.15748291 16.15421143 11.62355957 16.9763916 12.10375977 17.82348633 C13 20 13 20 12 23 C11.34 23 10.68 23 10 23 C8.12937507 19.73831763 6.28142424 16.46433978 4.4375 13.1875 C3.90447266 12.25873047 3.37144531 11.32996094 2.82226562 10.37304688 C2.32275391 9.48037109 1.82324219 8.58769531 1.30859375 7.66796875 C0.60947876 6.43469849 0.60947876 6.43469849 -0.10375977 5.17651367 C-1 3 -1 3 0 0 Z " fill="#CDC58D" transform="translate(330,50)"/>
<path d="M0 0 C0.33 0 0.66 0 1 0 C0.5003731 7.49440349 -1.43764478 13.95650263 -4 21 C-5.32 21 -6.64 21 -8 21 C-7.31451573 17.20185755 -6.32158048 13.6060859 -5.125 9.9375 C-4.79757812 8.91527344 -4.47015625 7.89304687 -4.1328125 6.83984375 C-3.04967732 4.12453591 -1.92104226 2.18872848 0 0 Z " fill="#BCA976" transform="translate(447,91)"/>
<path d="M0 0 C5 2 5 2 7.4296875 3.03515625 C12.34185665 5.09889505 16.6861324 6.53792456 22 7 C22 7.33 22 7.66 22 8 C13.72926771 9.76261508 9.46800596 7.87580056 2 4 C2 11.59 2 19.18 2 27 C1.67 27 1.34 27 1 27 C0.67 18.09 0.34 9.18 0 0 Z " fill="#8F7144" transform="translate(42,34)"/>
<path d="M0 0 C1.32 0.33 2.64 0.66 4 1 C4 1.66 4 2.32 4 3 C3.34 3 2.68 3 2 3 C2.185625 4.010625 2.37125 5.02125 2.5625 6.0625 C2.99768247 9.97914227 2.70853021 13.14244663 2 17 C4.29308963 18.14654482 5.79909656 18.19729117 8.3515625 18.31640625 C9.20234375 18.35830078 10.053125 18.40019531 10.9296875 18.44335938 C11.81914062 18.48267578 12.70859375 18.52199219 13.625 18.5625 C14.5221875 18.60568359 15.419375 18.64886719 16.34375 18.69335938 C18.56234283 18.79956861 20.7810488 18.90161194 23 19 C23 19.33 23 19.66 23 20 C15.41 20 7.82 20 0 20 C0 13.4 0 6.8 0 0 Z " fill="#3C351E" transform="translate(403,90)"/>
<path d="M0 0 C1.32 0.33 2.64 0.66 4 1 C4.67449966 3.39387157 5.33976641 5.78969221 6 8.1875 C6.19078125 8.86103516 6.3815625 9.53457031 6.578125 10.22851562 C7.5825836 13.90555156 8.23704741 17.1850182 8 21 C7.01 21 6.02 21 5 21 C4.16267257 17.87605609 3.33082018 14.75068026 2.5 11.625 C2.26152344 10.73554687 2.02304687 9.84609375 1.77734375 8.9296875 C1.55175781 8.07890625 1.32617188 7.228125 1.09375 6.3515625 C0.88427734 5.56604004 0.67480469 4.78051758 0.45898438 3.97119141 C0 2 0 2 0 0 Z " fill="#B3A070" transform="translate(280,91)"/>
<path d="M0 0 C0.99 0 1.98 0 3 0 C5.28953836 6.98575424 7.42351925 13.64987044 8 21 C7.01 21 6.02 21 5 21 C4.16193384 18.06377536 3.32937556 15.12617933 2.5 12.1875 C2.26152344 11.35412109 2.02304687 10.52074219 1.77734375 9.66210938 C1.43896484 8.45844727 1.43896484 8.45844727 1.09375 7.23046875 C0.88427734 6.49207764 0.67480469 5.75368652 0.45898438 4.99291992 C0 3 0 3 0 0 Z " fill="#AE9C6C" transform="translate(459,91)"/>
<path d="M0 0 C4.56248659 -0.02906612 9.1249493 -0.04682113 13.6875 -0.0625 C14.98107422 -0.07087891 16.27464844 -0.07925781 17.60742188 -0.08789062 C19.47817383 -0.09272461 19.47817383 -0.09272461 21.38671875 -0.09765625 C22.53358154 -0.10289307 23.68044434 -0.10812988 24.86206055 -0.11352539 C27.70263777 -0.01075807 30.24043792 0.34683584 33 1 C32.67 1.99 32.34 2.98 32 4 C30.74058594 3.84402344 29.48117188 3.68804687 28.18359375 3.52734375 C21.87160463 2.82381352 15.54630467 2.65999897 9.20117188 2.48242188 C8.30076172 2.44826172 7.40035156 2.41410156 6.47265625 2.37890625 C5.66062744 2.3538501 4.84859863 2.32879395 4.01196289 2.30297852 C2 2 2 2 0 0 Z " fill="#B59D67" transform="translate(46,94)"/>
<path d="M0 0 C-2.19592948 2.19592948 -2.94536168 2.38416556 -5.88671875 2.96484375 C-6.66080078 3.12533203 -7.43488281 3.28582031 -8.23242188 3.45117188 C-9.84960227 3.77152026 -11.46678959 4.09183364 -13.08398438 4.41210938 C-18.05910898 5.44328714 -22.39761464 6.83743338 -27 9 C-26.79296875 7.13671875 -26.79296875 7.13671875 -26 5 C-17.89082691 0.18947359 -9.15609879 -0.16285551 0 0 Z " fill="#BAB07F" transform="translate(118,42)"/>
<path d="M0 0 C0.99 0.33 1.98 0.66 3 1 C3 1.66 3 2.32 3 3 C2.34 3 1.68 3 1 3 C1.06688998 9.92377305 1.15665256 16.84697651 1.26245117 23.77026367 C1.2957402 26.12631461 1.32375961 28.48244606 1.34643555 30.83862305 C1.37990803 34.22219207 1.43222092 37.60502054 1.48828125 40.98828125 C1.49467117 42.04461258 1.5010611 43.10094391 1.50764465 44.18928528 C1.52743881 45.17007553 1.54723297 46.15086578 1.56762695 47.16137695 C1.57873001 48.02519485 1.58983307 48.88901276 1.60127258 49.77900696 C2.07752814 52.43184756 2.94107907 53.32601898 5 55 C3.35 55 1.7 55 0 55 C0 36.85 0 18.7 0 0 Z " fill="#1D0F02" transform="translate(44,38)"/>
<path d="M0 0 C1.32 0.33 2.64 0.66 4 1 C4 1.66 4 2.32 4 3 C5.45833358 4.62514468 5.45833358 4.62514468 7 6 C6.360625 6.2475 5.72125 6.495 5.0625 6.75 C2.81258459 7.81562433 2.81258459 7.81562433 2.25 10.125 C2.1675 10.74375 2.085 11.3625 2 12 C-3.42669797 13.26202278 -6.15817047 12.42091476 -11 10 C-9.68 8.68 -8.36 7.36 -7 6 C-6.01 7.485 -6.01 7.485 -5 9 C-1.535 8.505 -1.535 8.505 2 8 C1.34 5.36 0.68 2.72 0 0 Z " fill="#1D150A" transform="translate(131,107)"/>
<path d="M0 0 C2.9375 0.75 2.9375 0.75 6 2 C6.6875 3.875 6.6875 3.875 7 6 C7.53625 6.680625 8.0725 7.36125 8.625 8.0625 C9.305625 9.0215625 9.305625 9.0215625 10 10 C9.67 10.99 9.34 11.98 9 13 C8.38125 12.030625 7.7625 11.06125 7.125 10.0625 C5.34321154 6.97164638 5.34321154 6.97164638 3 6 C2.67 6.66 2.34 7.32 2 8 C1.34 7.34 0.68 6.68 0 6 C0.33 5.34 0.66 4.68 1 4 C-6.73232013 4.49330865 -6.73232013 4.49330865 -14 7 C-9.22058824 2.06127451 -9.22058824 2.06127451 -6.0546875 1.90234375 C-4.03645833 1.93489583 -2.01822917 1.96744792 0 2 C0 1.34 0 0.68 0 0 Z " fill="#746033" transform="translate(114,55)"/>
<path d="M0 0 C3 1 3 1 4.07495117 2.67407227 C4.39439697 3.38104248 4.71384277 4.0880127 5.04296875 4.81640625 C5.56987305 5.96206055 5.56987305 5.96206055 6.10742188 7.13085938 C6.46384766 7.93330078 6.82027344 8.73574219 7.1875 9.5625 C7.55552734 10.36880859 7.92355469 11.17511719 8.30273438 12.00585938 C9.21124489 13.99986298 10.10980336 15.99776958 11 18 C9.68 18.33 8.36 18.66 7 19 C5.8265684 16.39869373 4.66107492 13.79431492 3.5 11.1875 C2.99919922 10.08051758 2.99919922 10.08051758 2.48828125 8.95117188 C2.17246094 8.23896484 1.85664062 7.52675781 1.53125 6.79296875 C1.23798828 6.1383667 0.94472656 5.48376465 0.64257812 4.80932617 C0 3 0 3 0 0 Z " fill="#251B08" transform="translate(120,95)"/>
<path d="M0 0 C2.25 0.3125 2.25 0.3125 4 1 C-2.44845361 7.80670103 -2.44845361 7.80670103 -7.578125 8.1953125 C-8.45984375 8.17210938 -9.3415625 8.14890625 -10.25 8.125 C-11.14203125 8.10695313 -12.0340625 8.08890625 -12.953125 8.0703125 C-13.96632813 8.03550781 -13.96632813 8.03550781 -15 8 C-15 7.01 -15 6.02 -15 5 C-14.25234375 4.89042969 -13.5046875 4.78085938 -12.734375 4.66796875 C-11.74953125 4.50941406 -10.7646875 4.35085937 -9.75 4.1875 C-8.28820312 3.96126953 -8.28820312 3.96126953 -6.796875 3.73046875 C-3.85954549 2.96331705 -2.34892634 1.85441553 0 0 Z " fill="#967C51" transform="translate(525,104)"/>
<path d="M0 0 C2.6245228 0.99550865 3.95028727 1.93963454 5.75 4.125 C7.66295712 8.52480137 7.9375503 12.53832947 6.23828125 17 C4.41812361 20.4532635 2.78220624 22.78429085 -1 24 C-1.33 23.01 -1.66 22.02 -2 21 C0 19 2 17 4 15 C3.95868416 9.90782324 3.54473427 5.85297203 0 2 C0 1.34 0 0.68 0 0 Z " fill="#A48F60" transform="translate(117,61)"/>
<path d="M0 0 C2.95183101 2.95183101 3.08663988 5.95511947 4 10 C3.01 10.495 3.01 10.495 2 11 C1.67 9.68 1.34 8.36 1 7 C-1.72326338 11.08489507 -2.84941388 14.75228644 -3.4375 19.625 C-4.00563453 23.03380718 -4.69885866 24.49875941 -7 27 C-8.23364032 23.29907903 -7.59950089 22.09701028 -6.34765625 18.45703125 C-5.98349609 17.38388672 -5.61933594 16.31074219 -5.24414062 15.20507812 C-4.65922852 13.52575195 -4.65922852 13.52575195 -4.0625 11.8125 C-3.67642578 10.68134766 -3.29035156 9.55019531 -2.89257812 8.38476562 C-1.93637664 5.58699091 -0.9718993 2.79235241 0 0 Z " fill="#3E361F" transform="translate(463,48)"/>
<path d="M0 0 C0.77923828 0.00902344 1.55847656 0.01804687 2.36132812 0.02734375 C4.26185447 0.05066309 6.16222008 0.08652414 8.0625 0.125 C8.3925 0.785 8.7225 1.445 9.0625 2.125 C8.1178186 2.20802368 8.1178186 2.20802368 7.15405273 2.29272461 C4.26919312 2.54737236 1.38459868 2.80491392 -1.5 3.0625 C-2.49064453 3.14951172 -3.48128906 3.23652344 -4.50195312 3.32617188 C-9.67513531 3.79021147 -14.80502079 4.32597448 -19.9375 5.125 C-14.09486089 -0.01652242 -7.38831233 -0.16460679 0 0 Z " fill="#382E12" transform="translate(110.9375,100.875)"/>
<path d="M0 0 C2.87525669 -0.05425013 5.74947646 -0.09379277 8.625 -0.125 C9.43324219 -0.14175781 10.24148437 -0.15851563 11.07421875 -0.17578125 C15.76331313 -0.21390397 19.64096083 0.03361956 24 2 C24.33 2.66 24.66 3.32 25 4 C27.52733235 4.65555119 27.52733235 4.65555119 30 5 C28.68 5.33 27.36 5.66 26 6 C26 6.66 26 7.32 26 8 C24.68 7.34 23.36 6.68 22 6 C22 5.34 22 4.68 22 4 C14.74 3.01 7.48 2.02 0 1 C0 0.67 0 0.34 0 0 Z " fill="#CBBE89" transform="translate(60,104)"/>
<path d="M0 0 C-0.33 1.32 -0.66 2.64 -1 4 C-1.55461914 3.99476318 -2.10923828 3.98952637 -2.68066406 3.98413086 C-5.20376443 3.96328969 -7.72684664 3.95031718 -10.25 3.9375 C-11.12269531 3.92912109 -11.99539062 3.92074219 -12.89453125 3.91210938 C-13.73886719 3.90888672 -14.58320312 3.90566406 -15.453125 3.90234375 C-16.22817383 3.89710693 -17.00322266 3.89187012 -17.80175781 3.88647461 C-20.01315496 3.91308175 -20.01315496 3.91308175 -22.09667969 4.63110352 C-24 5 -24 5 -27 3 C-22.11173422 0.47900759 -17.18902268 0.55920634 -11.8125 0.375 C-10.89791016 0.33632812 -9.98332031 0.29765625 -9.04101562 0.2578125 C-2.80287388 0 -2.80287388 0 0 0 Z " fill="#C9BF8C" transform="translate(119,94)"/>
<path d="M0 0 C0.33 0 0.66 0 1 0 C1 15.18 1 30.36 1 46 C-1.64 45.01 -4.28 44.02 -7 43 C-3 42 -3 42 -1 43 C-0.67 28.81 -0.34 14.62 0 0 Z " fill="#282406" transform="translate(86,53)"/>
<path d="M0 0 C0.33 0.66 0.66 1.32 1 2 C-0.98 2.33 -2.96 2.66 -5 3 C-4.67 5.31 -4.34 7.62 -4 10 C-6.35438733 11.42944945 -7.48032433 12.08661261 -10.25 11.625 C-10.8275 11.41875 -11.405 11.2125 -12 11 C-10 9 -10 9 -7 7 C-7.99 4.69 -8.98 2.38 -10 0 C-6.64338305 -1.67830848 -3.63864406 -0.6353188 0 0 Z " fill="#8F754A" transform="translate(137,105)"/>
<path d="M0 0 C0.33 0.66 0.66 1.32 1 2 C1.66 2 2.32 2 3 2 C3 1.34 3 0.68 3 0 C3.66 0.33 4.32 0.66 5 1 C3.02 4.63 1.04 8.26 -1 12 C-3.25245881 9.31158141 -4.88213958 7.35358125 -6 4 C-5.38125 3.71125 -4.7625 3.4225 -4.125 3.125 C-1.86674235 2.06279958 -1.86674235 2.06279958 0 0 Z " fill="#2E2D1F" transform="translate(345,60)"/>
<path d="M0 0 C0.33 0 0.66 0 1 0 C1.01981934 1.09989258 1.03963867 2.19978516 1.06005859 3.33300781 C1.13619901 7.41836222 1.22490336 11.50336438 1.31738281 15.58837891 C1.35563771 17.3555607 1.3904967 19.12281944 1.421875 20.89013672 C1.46760152 23.43224563 1.52558289 25.97382648 1.5859375 28.515625 C1.59748871 29.30430969 1.60903992 30.09299438 1.62094116 30.90557861 C1.72337084 34.72273255 1.852852 37.76044336 4 41 C1.69 41 -0.62 41 -3 41 C-2.67 40.01 -2.34 39.02 -2 38 C-1.34 38 -0.68 38 0 38 C0 25.46 0 12.92 0 0 Z " fill="#352F1B" transform="translate(403,47)"/>
<path d="M0 0 C0.99 0 1.98 0 3 0 C3 2.97 3 5.94 3 9 C1.8553125 9.2165625 1.8553125 9.2165625 0.6875 9.4375 C-2.08172908 9.9632594 -2.08172908 9.9632594 -5 11 C-3.78310457 6.97488434 -2.50546238 3.40742883 0 0 Z " fill="#2C2A22" transform="translate(357,53)"/>
<path d="M0 0 C5.61 0 11.22 0 17 0 C16.34 0.66 15.68 1.32 15 2 C14.01 2 13.02 2 12 2 C12 2.66 12 3.32 12 4 C6.140625 5.26953125 6.140625 5.26953125 4 5 C2.68 3.35 1.36 1.7 0 0 Z " fill="#17130F" transform="translate(104,106)"/>
<path d="M0 0 C1.16144531 0.00902344 2.32289062 0.01804687 3.51953125 0.02734375 C4.39996094 0.03894531 5.28039062 0.05054687 6.1875 0.0625 C5.1975 0.5575 5.1975 0.5575 4.1875 1.0625 C3.8575 1.7225 3.5275 2.3825 3.1875 3.0625 C1.125 4.1875 1.125 4.1875 -0.8125 5.0625 C-0.8125 4.4025 -0.8125 3.7425 -0.8125 3.0625 C-1.72 3.248125 -2.6275 3.43375 -3.5625 3.625 C-6.4926949 4.01944931 -8.11625511 4.16097014 -10.8125 3.0625 C-11.1425 2.4025 -11.4725 1.7425 -11.8125 1.0625 C-7.81454108 0.10630267 -4.10446078 -0.0414592 0 0 Z " fill="#121009" transform="translate(44.8125,106.9375)"/>
<path d="M0 0 C2.3150939 2.3150939 2.64760994 3.75265814 3.5 6.875 C4.20499962 9.44211817 4.86980593 11.7461684 6.0859375 14.1171875 C7.37163842 16.76551161 7.13171897 19.1021826 7 22 C4.50907189 23.24546405 3.58919267 22.7767578 1 22 C1.33 21.34 1.66 20.68 2 20 C2.99 20 3.98 20 5 20 C3.02 13.73 1.04 7.46 -1 1 C-0.67 0.67 -0.34 0.34 0 0 Z " fill="#352F21" transform="translate(483,91)"/>
<path d="M0 0 C0.66 0.66 1.32 1.32 2 2 C0.39967863 2.84069415 -1.20541171 3.67231505 -2.8125 4.5 C-4.15248047 5.19609375 -4.15248047 5.19609375 -5.51953125 5.90625 C-8 7 -8 7 -11 7 C-11.33 5.02 -11.66 3.04 -12 1 C-3.42857143 0.85714286 -3.42857143 0.85714286 0 2 C0 1.34 0 0.68 0 0 Z " fill="#1E1910" transform="translate(132,32)"/>
<path d="M0 0 C3.8561395 0.02749476 3.8561395 0.02749476 5.9375 1.75 C6.329375 2.245 6.72125 2.74 7.125 3.25 C8.115 3.25 9.105 3.25 10.125 3.25 C9.465 4.57 8.805 5.89 8.125 7.25 C-1.46953303 4.35933941 -1.46953303 4.35933941 -4.875 1.25 C-3.875 0.25 -3.875 0.25 0 0 Z " fill="#1A160D" transform="translate(45.875,31.75)"/>
<path d="M0 0 C0.33 0 0.66 0 1 0 C1 10.56 1 21.12 1 32 C1.66 32 2.32 32 3 32 C3 32.66 3 33.32 3 34 C3.66 34.33 4.32 34.66 5 35 C3.02 34.67 1.04 34.34 -1 34 C-0.67 22.78 -0.34 11.56 0 0 Z " fill="#8A6E45" transform="translate(43,61)"/>
<path d="M0 0 C0.77923828 0.00451172 1.55847656 0.00902344 2.36132812 0.01367188 C4.26175268 0.02533092 6.16213706 0.04326123 8.0625 0.0625 C8.0625 0.3925 8.0625 0.7225 8.0625 1.0625 C6.4125 1.3925 4.7625 1.7225 3.0625 2.0625 C3.0625 2.3925 3.0625 2.7225 3.0625 3.0625 C-3.5375 3.0625 -10.1375 3.0625 -16.9375 3.0625 C-16.6075 2.4025 -16.2775 1.7425 -15.9375 1.0625 C-10.62444445 -0.03603814 -5.40766387 -0.06023961 0 0 Z " fill="#97855B" transform="translate(66.9375,102.9375)"/>
<path d="M0 0 C1.8984375 0.2421875 1.8984375 0.2421875 4 1 C4.9765625 2.8203125 4.9765625 2.8203125 5.625 5.125 C5.86089844 5.93839844 6.09679687 6.75179687 6.33984375 7.58984375 C6.66662109 8.78287109 6.66662109 8.78287109 7 10 C7.5878125 11.8253125 7.5878125 11.8253125 8.1875 13.6875 C8.98369166 16.93351216 9.16224969 19.67388137 9 23 C7.35 23 5.7 23 4 23 C4.99 22.67 5.98 22.34 7 22 C6.84853516 21.43490723 6.69707031 20.86981445 6.54101562 20.28759766 C5.85811524 17.73407552 5.17901336 15.17955836 4.5 12.625 C4.26152344 11.73554687 4.02304687 10.84609375 3.77734375 9.9296875 C3.55175781 9.07890625 3.32617188 8.228125 3.09375 7.3515625 C2.88427734 6.56604004 2.67480469 5.78051758 2.45898438 4.97119141 C2 3 2 3 2 1 C1.34 0.67 0.68 0.34 0 0 Z " fill="#342E1E" transform="translate(460,90)"/>
<path d="M0 0 C0.66 0 1.32 0 2 0 C2.86329773 2.45546966 3.71589436 4.91378043 4.5625 7.375 C4.80935547 8.07367188 5.05621094 8.77234375 5.31054688 9.4921875 C5.93091049 11.30959075 6.47106524 13.15391397 7 15 C6.67 15.66 6.34 16.32 6 17 C1.70611028 14.19582712 1.70611028 14.19582712 0 12 C-0.15674704 9.8011873 0.16951212 8.02097008 0.6328125 5.87109375 C1.06574948 3.66495742 0.78623396 2.0966239 0 0 Z " fill="#312C1D" transform="translate(291,71)"/>
<path d="M0 0 C0.33 0.66 0.66 1.32 1 2 C-0.24853673 2.79397239 -1.49890043 3.58507217 -2.75 4.375 C-3.79414063 5.03628906 -3.79414063 5.03628906 -4.859375 5.7109375 C-5.91898438 6.34902344 -5.91898438 6.34902344 -7 7 C-7.639375 7.391875 -8.27875 7.78375 -8.9375 8.1875 C-11.5941125 9.23404432 -13.43514667 8.99537544 -16.25 8.625 C-17.14203125 8.51414062 -18.0340625 8.40328125 -18.953125 8.2890625 C-19.62859375 8.19367187 -20.3040625 8.09828125 -21 8 C-21 7.67 -21 7.34 -21 7 C-20.23816406 6.82984375 -19.47632812 6.6596875 -18.69140625 6.484375 C-12.08735803 4.93436119 -6.07626488 3.02278834 0 0 Z " fill="#958258" transform="translate(133,34)"/>
<path d="M0 0 C6.0546875 -0.1953125 6.0546875 -0.1953125 8 0 C8.66 0.66 9.32 1.32 10 2 C9.34 2 8.68 2 8 2 C7.566875 3.4540625 7.566875 3.4540625 7.125 4.9375 C6 8 6 8 4 9 C4.875 4.25 4.875 4.25 6 2 C4.68 2 3.36 2 2 2 C1.67 3.32 1.34 4.64 1 6 C0.34 6 -0.32 6 -1 6 C-1 6.66 -1 7.32 -1 8 C-1.66 7.67 -2.32 7.34 -3 7 C-2.67 5.68 -2.34 4.36 -2 3 C-1.67 3.33 -1.34 3.66 -1 4 C-0.67 2.68 -0.34 1.36 0 0 Z " fill="#231A0F" transform="translate(211,104)"/>
<path d="M0 0 C0.66 0.33 1.32 0.66 2 1 C1.34 2.98 0.68 4.96 0 7 C-0.66 6.67 -1.32 6.34 -2 6 C-1.979375 6.804375 -1.95875 7.60875 -1.9375 8.4375 C-2 11 -2 11 -3 12 C-2.01 12.33 -1.02 12.66 0 13 C-0.33 14.65 -0.66 16.3 -1 18 C-1.33 17.34 -1.66 16.68 -2 16 C-2.66 16 -3.32 16 -4 16 C-5.20539165 11.05789424 -4.79432587 7.75496355 -3 3 C-1.375 1.0625 -1.375 1.0625 0 0 Z " fill="#2A2C2A" transform="translate(511,43)"/>
<path d="M0 0 C0.66 0 1.32 0 2 0 C-0.37028851 9.09574126 -3.15698081 18.04392769 -6 27 C-8.34186364 20.49658138 -5.01424416 11.97661892 -2.375 5.875 C-1.694375 4.451875 -1.694375 4.451875 -1 3 C-0.67 2.01 -0.34 1.02 0 0 Z " fill="#332E1C" transform="translate(447,80)"/>
<path d="M0 0 C0.70511719 0.71542969 1.41023438 1.43085937 2.13671875 2.16796875 C4.94539715 4.97664715 7.86524896 7.64932135 10.8125 10.3125 C12.27623047 11.63701172 12.27623047 11.63701172 13.76953125 12.98828125 C14.50558594 13.65214844 15.24164062 14.31601563 16 15 C15.34 15.66 14.68 16.32 14 17 C13.67 16.01 13.34 15.02 13 14 C10.98491642 13.26676204 10.98491642 13.26676204 9 13 C9 12.34 9 11.68 9 11 C8.443125 10.79375 7.88625 10.5875 7.3125 10.375 C4.00396768 8.40776457 2.2844372 6.10937286 0 3 C0 2.01 0 1.02 0 0 Z " fill="#3B301F" transform="translate(503,62)"/>
<path d="M0 0 C0.99 0.66 1.98 1.32 3 2 C3 3.32 3 4.64 3 6 C2.34 6 1.68 6 1 6 C0.67 5.34 0.34 4.68 0 4 C-6.6 3.67 -13.2 3.34 -20 3 C-18 1 -18 1 -14.12109375 0.83984375 C-12.55972047 0.86247235 -10.99847095 0.89544935 -9.4375 0.9375 C-6.62071435 0.99928165 -3.81841677 1.02057239 -1 1 C-0.67 0.67 -0.34 0.34 0 0 Z " fill="#29241C" transform="translate(426,106)"/>
<path d="M0 0 C0 0.66 0 1.32 0 2 C-0.97839844 2.14695313 -0.97839844 2.14695313 -1.9765625 2.296875 C-7.63431108 3.26486738 -11.48422039 4.43491083 -16 8 C-16.66 7.34 -17.32 6.68 -18 6 C-11.82554279 1.09546662 -7.9201007 -0.75429531 0 0 Z " fill="#C0B583" transform="translate(114,55)"/>
<path d="M0 0 C0.66 1.32 1.32 2.64 2 4 C-8.395 4.495 -8.395 4.495 -19 5 C-19 4.34 -19 3.68 -19 3 C-17.06833984 2.80083984 -17.06833984 2.80083984 -15.09765625 2.59765625 C-13.41924638 2.41950101 -11.74086227 2.24110308 -10.0625 2.0625 C-8.78729492 1.93198242 -8.78729492 1.93198242 -7.48632812 1.79882812 C-6.67744141 1.71181641 -5.86855469 1.62480469 -5.03515625 1.53515625 C-4.2862915 1.456604 -3.53742676 1.37805176 -2.76586914 1.29711914 C-0.97859987 1.1719262 -0.97859987 1.1719262 0 0 Z " fill="#382E17" transform="translate(115,91)"/>
<path d="M0 0 C1.45945288 0.08708669 2.91765868 0.19526907 4.375 0.3125 C5.59316406 0.39951172 5.59316406 0.39951172 6.8359375 0.48828125 C9 1 9 1 11 4 C13.19454681 4.57993699 13.19454681 4.57993699 15.625 4.6875 C16.44226563 4.75324219 17.25953125 4.81898437 18.1015625 4.88671875 C18.72804688 4.92410156 19.35453125 4.96148437 20 5 C20 5.33 20 5.66 20 6 C13.86946489 6.32712342 9.37330889 6.39366878 4 3 C3.67 3.66 3.34 4.32 3 5 C1 3 1 3 0 0 Z " fill="#19170B" transform="translate(73,107)"/>
<path d="M0 0 C0.66 0 1.32 0 2 0 C1.49396008 2.16874252 1.00016187 3.99967627 0 6 C-0.66 6 -1.32 6 -2 6 C-2.33 10.95 -2.66 15.9 -3 21 C-3.33 21 -3.66 21 -4 21 C-4 15.06 -4 9.12 -4 3 C-2.68 3 -1.36 3 0 3 C0 2.01 0 1.02 0 0 Z " fill="#211509" transform="translate(179,88)"/>
<path d="M0 0 C2.97 0 5.94 0 9 0 C9 3 9 3 7.3125 4.75 C5 6 5 6 2.25 5.6875 C1.5075 5.460625 0.765 5.23375 0 5 C0 3.35 0 1.7 0 0 Z " fill="#2D2D2A" transform="translate(547,42)"/>
<path d="M0 0 C-0.55728913 3.34373475 -1.35173889 6.03312999 -3 9 C-3.99 8.67 -4.98 8.34 -6 8 C-6 5.69 -6 3.38 -6 1 C-4 0 -4 0 0 0 Z " fill="#181619" transform="translate(142,34)"/>
<path d="M0 0 C1.5 1.375 1.5 1.375 3 3 C3 3.66 3 4.32 3 5 C2.01 5.495 2.01 5.495 1 6 C0.21984379 7.82510997 -0.47795406 9.68606676 -1.125 11.5625 C-1.47820312 12.57441406 -1.83140625 13.58632812 -2.1953125 14.62890625 C-2.46085937 15.41136719 -2.72640625 16.19382812 -3 17 C-3.66 17 -4.32 17 -5 17 C-1.92482916 5.47835991 -1.92482916 5.47835991 0 0 Z " fill="#352F21" transform="translate(449,91)"/>
<path d="M0 0 C2 3.75 2 3.75 2 6 C3.32 5.34 4.64 4.68 6 4 C5.67 8.29 5.34 12.58 5 17 C1.67289832 12.00934748 -0.58827908 6.07888388 0 0 Z " fill="#2C2918" transform="translate(294,61)"/>
<path d="M0 0 C4.26272329 1.52240117 5.98031034 4.03275246 8 8 C8.31674074 11.03378241 8.24296324 13.96295955 8 17 C6.19840891 13.46116035 4.5938291 9.85467264 3 6.21875 C2.05229044 4.11601942 1.04626879 2.05517084 0 0 Z " fill="#9F8A5F" transform="translate(119,58)"/>
<path d="M0 0 C0.66 0.33 1.32 0.66 2 1 C1.67 1.99 1.34 2.98 1 4 C1.30806453 6.07647876 1.30806453 6.07647876 1.9375 8.1875 C2.288125 9.445625 2.63875 10.70375 3 12 C2.34 12 1.68 12 1 12 C0.34 12.66 -0.32 13.32 -1 14 C-2.33650858 9.99047425 -2.20225023 6.17983803 -2 2 C-1.34 1.34 -0.68 0.68 0 0 Z " fill="#302A22" transform="translate(328,44)"/>
<path d="M0 0 C4.36600184 0.51364728 7.94357635 1.37743054 12 3 C14.32597511 3.3813074 16.65912158 3.72460254 19 4 C19 4.33 19 4.66 19 5 C11.09890991 6.65668018 6.84377198 5.12912339 0 1 C0 0.67 0 0.34 0 0 Z " fill="#9A855B" transform="translate(45,37)"/>
<path d="M0 0 C-2.17241963 2.62690073 -3.32677023 3.88879153 -6.74902344 4.45410156 C-7.77543945 4.4331543 -8.80185547 4.41220703 -9.859375 4.390625 C-10.97441406 4.37773438 -12.08945312 4.36484375 -13.23828125 4.3515625 C-14.97658203 4.30128906 -14.97658203 4.30128906 -16.75 4.25 C-17.92433594 4.23195313 -19.09867187 4.21390625 -20.30859375 4.1953125 C-23.2065534 4.1481912 -26.10286418 4.08241305 -29 4 C-29 3.67 -29 3.34 -29 3 C-21.41 2.67 -13.82 2.34 -6 2 C-6 1.34 -6 0.68 -6 0 C-2.25 -1.125 -2.25 -1.125 0 0 Z " fill="#2B281E" transform="translate(430,34)"/>
<path d="M0 0 C0.74507812 0.00451172 1.49015625 0.00902344 2.2578125 0.01367188 C4.0885764 0.02540754 5.91929873 0.0433415 7.75 0.0625 C6.75 2.0625 6.75 2.0625 4.9375 2.75 C2.75 3.0625 2.75 3.0625 1 2.5625 C-1.41044032 2.0268466 -2.89399262 2.24033795 -5.3125 2.625 C-9.25 3.0625 -9.25 3.0625 -12.25 1.0625 C-8.15996141 -0.08732602 -4.21822949 -0.04844256 0 0 Z " fill="#17100A" transform="translate(64.25,105.9375)"/>
<path d="M0 0 C2 2 2 2 2.0625 4.8125 C2.041875 5.864375 2.02125 6.91625 2 8 C2.291224 9.67453799 2.61070799 11.34550895 3 13 C0.33333333 9.66666667 -2.33333333 6.33333333 -5 3 C-4.01 3 -3.02 3 -2 3 C-1.34 2.01 -0.68 1.02 0 0 Z " fill="#352E24" transform="translate(526,72)"/>
<path d="M0 0 C1.32 0.33 2.64 0.66 4 1 C1.9 10.1 1.9 10.1 -1 13 C-2.32 12.34 -3.64 11.68 -5 11 C-5 10.34 -5 9.68 -5 9 C-3.35 8.67 -1.7 8.34 0 8 C0 5.36 0 2.72 0 0 Z " fill="#1A1A18" transform="translate(197,34)"/>
<path d="M0 0 C0.66666667 1.33333333 1.33333333 2.66666667 2 4 C2.53625 5.010625 3.0725 6.02125 3.625 7.0625 C5 10 5 10 5 13 C1.83884224 11.63016497 1.0072908 11.0109362 -1 8 C-0.96856707 5.26009592 -0.44521663 2.71582146 0 0 Z " fill="#A28856" transform="translate(503,52)"/>
<path d="M0 0 C0 0.66 0 1.32 0 2 C-0.59167969 2.03738281 -1.18335937 2.07476562 -1.79296875 2.11328125 C-6.60667451 2.51376901 -10.00841777 3.0385035 -14 6 C-14.33 5.01 -14.66 4.02 -15 3 C-10.27805833 -0.77755334 -5.74071928 -0.30096975 0 0 Z " fill="#C2B383" transform="translate(115,59)"/>
<path d="M0 0 C0.33 0 0.66 0 1 0 C1.33 2.31 1.66 4.62 2 7 C-1.3 7.66 -4.6 8.32 -8 9 C-8.33 7.68 -8.66 6.36 -9 5 C-8.01 4.67 -7.02 4.34 -6 4 C-5.67 4.66 -5.34 5.32 -5 6 C-4.01 5.67 -3.02 5.34 -2 5 C-0.78130071 2.49552484 -0.78130071 2.49552484 0 0 Z " fill="#251E14" transform="translate(244,38)"/>
<path d="M0 0 C1.21236328 0.01353516 1.21236328 0.01353516 2.44921875 0.02734375 C3.37154297 0.04474609 3.37154297 0.04474609 4.3125 0.0625 C3.9825 1.0525 3.6525 2.0425 3.3125 3.0625 C-0.9775 3.0625 -5.2675 3.0625 -9.6875 3.0625 C-6.66074696 0.03574696 -4.08749979 -0.05923913 0 0 Z " fill="#866B46" transform="translate(46.6875,103.9375)"/>
<path d="M0 0 C2.0343459 1.41519715 2.90410393 2.54982123 3.421875 4.98046875 C3.66273952 6.98176954 3.83532741 8.9909944 4 11 C3.01 11 2.02 11 1 11 C0.63890458 9.35567294 0.28629924 7.7094792 -0.0625 6.0625 C-0.25972656 5.14597656 -0.45695312 4.22945313 -0.66015625 3.28515625 C-0.77230469 2.53105469 -0.88445312 1.77695313 -1 1 C-0.67 0.67 -0.34 0.34 0 0 Z " fill="#B4A471" transform="translate(463,101)"/>
<path d="M0 0 C0.33 0 0.66 0 1 0 C1 3.63 1 7.26 1 11 C-0.32 11 -1.64 11 -3 11 C-3 7.7 -3 4.4 -3 1 C-2.34 1.66 -1.68 2.32 -1 3 C-0.67 2.01 -0.34 1.02 0 0 Z " fill="#826948" transform="translate(530,90)"/>
<path d="M0 0 C0.66 0.33 1.32 0.66 2 1 C2.33 1.99 2.66 2.98 3 4 C5.01508358 4.73323796 5.01508358 4.73323796 7 5 C7 4.34 7 3.68 7 3 C7.66 3 8.32 3 9 3 C9.33 3.99 9.66 4.98 10 6 C7 8 7 8 3.375 7.3125 C2.26125 6.879375 1.1475 6.44625 0 6 C-1 3 -1 3 0 0 Z " fill="#271E12" transform="translate(213,39)"/>
<path d="M0 0 C7.26 0 14.52 0 22 0 C22 0.33 22 0.66 22 1 C14.74 1.66 7.48 2.32 0 3 C0 2.01 0 1.02 0 0 Z " fill="#C6B77F" transform="translate(98,104)"/>
<path d="M0 0 C-0.99 0.33 -1.98 0.66 -3 1 C-3 1.99 -3 2.98 -3 4 C-5.31 3.67 -7.62 3.34 -10 3 C-10.33 2.01 -10.66 1.02 -11 0 C-9.54263913 -0.19491452 -8.08405407 -0.38069358 -6.625 -0.5625 C-5.81289062 -0.66691406 -5.00078125 -0.77132812 -4.1640625 -0.87890625 C-2 -1 -2 -1 0 0 Z " fill="#37260F" transform="translate(139,101)"/>
<path d="M0 0 C1.32 0.33 2.64 0.66 4 1 C4 2.65 4 4.3 4 6 C3.34 6 2.68 6 2 6 C1.34 5.34 0.68 4.68 0 4 C-2.43252661 3.53837573 -2.43252661 3.53837573 -5.125 3.375 C-6.03507812 3.30023438 -6.94515625 3.22546875 -7.8828125 3.1484375 C-8.58148438 3.09945312 -9.28015625 3.05046875 -10 3 C-10 2.67 -10 2.34 -10 2 C-6.7 2 -3.4 2 0 2 C0 1.34 0 0.68 0 0 Z " fill="#B29C69" transform="translate(117,85)"/>
<path d="M0 0 C6.75 0.875 6.75 0.875 9 2 C9 2.66 9 3.32 9 4 C10.32 4 11.64 4 13 4 C12.67 4.99 12.34 5.98 12 7 C8 5 4 3 0 1 C0 0.67 0 0.34 0 0 Z " fill="#D8CE98" transform="translate(77,96)"/>
<path d="M0 0 C0.66 0 1.32 0 2 0 C1.690625 0.825 1.38125 1.65 1.0625 2.5 C-0.11877583 6.39126155 -0.58224168 9.96166953 -1 14 C-1.66 14 -2.32 14 -3 14 C-3.57293869 4.26004228 -3.57293869 4.26004228 0 0 Z " fill="#DAD19F" transform="translate(96,62)"/>
<path d="M0 0 C3.465 1.485 3.465 1.485 7 3 C7 3.99 7 4.98 7 6 C2.125 5.125 2.125 5.125 1 4 C-0.51469448 3.76807135 -2.03754562 3.58784762 -3.5625 3.4375 C-4.38878906 3.35371094 -5.21507812 3.26992188 -6.06640625 3.18359375 C-6.70449219 3.12300781 -7.34257813 3.06242187 -8 3 C-8 2.67 -8 2.34 -8 2 C-5.36 2 -2.72 2 0 2 C0 1.34 0 0.68 0 0 Z " fill="#8A744A" transform="translate(520,39)"/>
<path d="M0 0 C0.97533063 2.63339271 1.019574 3.92348347 0.3125 6.6875 C-1 9 -1 9 -3.08203125 9.64453125 C-3.71496094 9.76183594 -4.34789062 9.87914063 -5 10 C-3.375 2.25 -3.375 2.25 0 0 Z " fill="#191C18" transform="translate(261,97)"/>
<path d="M0 0 C0.33 1.32 0.66 2.64 1 4 C1.66 4 2.32 4 3 4 C2.34 6.31 1.68 8.62 1 11 C0.01 11 -0.98 11 -2 11 C-3 9 -3 9 -2.44140625 6.8359375 C-2.15136719 6.02382812 -1.86132812 5.21171875 -1.5625 4.375 C-1.27503906 3.55773437 -0.98757813 2.74046875 -0.69140625 1.8984375 C-0.46324219 1.27195312 -0.23507812 0.64546875 0 0 Z " fill="#AF9F6F" transform="translate(448,82)"/>
<path d="M0 0 C0.99 0.33 1.98 0.66 3 1 C3.66 0.67 4.32 0.34 5 0 C5.99 0.66 6.98 1.32 8 2 C6.02 2.33 4.04 2.66 2 3 C2 3.66 2 4.32 2 5 C2.99 5.33 3.98 5.66 5 6 C2.69 6 0.38 6 -2 6 C-2 5.01 -2 4.02 -2 3 C-1.34 2.67 -0.68 2.34 0 2 C0 1.34 0 0.68 0 0 Z " fill="#1B1B17" transform="translate(213,32)"/>
<path d="M0 0 C1.85772162 0.08984301 3.71247985 0.24611861 5.5625 0.4375 C7.08037109 0.59025391 7.08037109 0.59025391 8.62890625 0.74609375 C9.80259766 0.87177734 9.80259766 0.87177734 11 1 C10.67 1.99 10.34 2.98 10 4 C8.54077307 3.88590407 7.08259402 3.75834456 5.625 3.625 C4.40683594 3.52058594 4.40683594 3.52058594 3.1640625 3.4140625 C1 3 1 3 -1 1 C-0.67 0.67 -0.34 0.34 0 0 Z " fill="#B8AA80" transform="translate(68,94)"/>
<path d="M0 0 C0.66 0 1.32 0 2 0 C2.39180108 1.57925975 2.76280736 3.16368794 3.125 4.75 C3.33382812 5.63171875 3.54265625 6.5134375 3.7578125 7.421875 C4.03088304 10.32875493 3.53508028 11.56661348 2 14 C1.67 14 1.34 14 1 14 C0.67 9.38 0.34 4.76 0 0 Z " fill="#332A1B" transform="translate(530,87)"/>
<path d="M0 0 C1.134375 0.020625 2.26875 0.04125 3.4375 0.0625 C3.1075 1.0525 2.7775 2.0425 2.4375 3.0625 C-1.125 4.25 -1.125 4.25 -4.5625 5.0625 C-4.5625 0.08004386 -4.5625 0.08004386 0 0 Z " fill="#1C1B0F" transform="translate(99.5625,106.9375)"/>
<path d="M0 0 C1.485 0.99 1.485 0.99 3 2 C3.1875 5.625 3.1875 5.625 3 9 C2.01 8.67 1.02 8.34 0 8 C-0.38063221 5.6739143 -0.71269945 3.33944736 -1 1 C-0.67 0.67 -0.34 0.34 0 0 Z " fill="#B39C66" transform="translate(475,76)"/>
<path d="M0 0 C1.258125 -0.020625 2.51625 -0.04125 3.8125 -0.0625 C4.52019531 -0.07410156 5.22789063 -0.08570312 5.95703125 -0.09765625 C8 0 8 0 11 1 C11 1.99 11 2.98 11 4 C7.37 3.34 3.74 2.68 0 2 C0 1.34 0 0.68 0 0 Z " fill="#C8BB87" transform="translate(68,99)"/>
<path d="M0 0 C0.99 0.33 1.98 0.66 3 1 C4.39439664 1.06665376 5.79169875 1.08538199 7.1875 1.0625 C8.445625 1.041875 9.70375 1.02125 11 1 C11 1.99 11 2.98 11 4 C9.54176788 4.0270043 8.08339325 4.04639787 6.625 4.0625 C5.81289062 4.07410156 5.00078125 4.08570312 4.1640625 4.09765625 C2 4 2 4 0 3 C0 2.01 0 1.02 0 0 Z " fill="#BEAC76" transform="translate(104,82)"/>
<path d="M0 0 C4.40114397 0.50298788 6.71195019 2.08772731 10 5 C9.34 5 8.68 5 8 5 C7.67 5.66 7.34 6.32 7 7 C5.82780457 6.21654285 4.66236332 5.42297164 3.5 4.625 C2.8503125 4.18414062 2.200625 3.74328125 1.53125 3.2890625 C1.0259375 2.86367188 0.520625 2.43828125 0 2 C0 1.34 0 0.68 0 0 Z " fill="#CCC692" transform="translate(79,46)"/>
<path d="M0 0 C1.98 0 3.96 0 6 0 C6.33 0.66 6.66 1.32 7 2 C2.31506124 4.48887372 -0.9444214 3.85687773 -6 3 C-6 2.67 -6 2.34 -6 2 C-4.02 2 -2.04 2 0 2 C0 1.34 0 0.68 0 0 Z " fill="#15130F" transform="translate(77,40)"/>
<path d="M0 0 C-1.98 0.99 -1.98 0.99 -4 2 C-4 2.66 -4 3.32 -4 4 C-4.598125 3.835 -5.19625 3.67 -5.8125 3.5 C-8.11344336 2.8885876 -8.11344336 2.8885876 -11 3 C-11.33 2.34 -11.66 1.68 -12 1 C-7.9472484 0.01751476 -4.16138263 -0.08159574 0 0 Z " fill="#21150C" transform="translate(45,107)"/>
<path d="M0 0 C5.875 2.875 5.875 2.875 7 4 C7.07179964 5.51928038 7.08392007 7.04167482 7.0625 8.5625 C7.05347656 9.38878906 7.04445313 10.21507812 7.03515625 11.06640625 C7.01775391 12.02353516 7.01775391 12.02353516 7 13 C6.67 13 6.34 13 6 13 C6 10.36 6 7.72 6 5 C5.38125 4.9175 4.7625 4.835 4.125 4.75 C2 4 2 4 0.75 1.9375 C0.5025 1.298125 0.255 0.65875 0 0 Z " fill="#1F180C" transform="translate(79,48)"/>
<path d="M0 0 C1.32 0 2.64 0 4 0 C4.66 1.98 5.32 3.96 6 6 C4.35 5.67 2.7 5.34 1 5 C0.67 3.35 0.34 1.7 0 0 Z " fill="#8A764C" transform="translate(214,38)"/>
<path d="M0 0 C2.475 0.495 2.475 0.495 5 1 C5.33 2.65 5.66 4.3 6 6 C4.68 6 3.36 6 2 6 C1.34 4.02 0.68 2.04 0 0 Z " fill="#A18B62" transform="translate(241,106)"/>
<path d="M0 0 C1.32 0 2.64 0 4 0 C3.34 1.98 2.68 3.96 2 6 C0.68 6 -0.64 6 -2 6 C-1.34 4.02 -0.68 2.04 0 0 Z " fill="#8B794E" transform="translate(213,106)"/>
<path d="M0 0 C-0.33 0.99 -0.66 1.98 -1 3 C-3.64 3 -6.28 3 -9 3 C-9 2.34 -9 1.68 -9 1 C-6.04335481 -0.4783226 -3.25770263 -0.06032783 0 0 Z " fill="#30210E" transform="translate(135,96)"/>
<path d="M0 0 C-0.33 1.32 -0.66 2.64 -1 4 C-3.97 3.67 -6.94 3.34 -10 3 C-10 2.34 -10 1.68 -10 1 C-2.25 0 -2.25 0 0 0 Z " fill="#BCA877" transform="translate(119,94)"/>
<path d="M0 0 C-0.33 0.99 -0.66 1.98 -1 3 C-4.5625 4.6875 -4.5625 4.6875 -8 6 C-7.75 4.125 -7.75 4.125 -7 2 C-4.41847698 0.27898465 -3.15081975 0 0 0 Z " fill="#CDC792" transform="translate(99,45)"/>
<path d="M0 0 C0.66 0 1.32 0 2 0 C2 1.32 2 2.64 2 4 C-0.35438733 5.42944945 -1.48032433 6.08661261 -4.25 5.625 C-4.8275 5.41875 -5.405 5.2125 -6 5 C-4 3 -4 3 -1 2 C-0.67 1.34 -0.34 0.68 0 0 Z " fill="#8C795B" transform="translate(131,111)"/>
<path d="M0 0 C0.99 0.33 1.98 0.66 3 1 C3.33 2.98 3.66 4.96 4 7 C2.68 6.67 1.36 6.34 0 6 C0 4.02 0 2.04 0 0 Z " fill="#C8B983" transform="translate(305,105)"/>
<path d="M0 0 C2.97 0.33 5.94 0.66 9 1 C9 1.99 9 2.98 9 4 C6.69 4 4.38 4 2 4 C1.34 2.68 0.68 1.36 0 0 Z " fill="#201C04" transform="translate(83,105)"/>
<path d="M0 0 C3.48331435 3.01887244 4.79157144 5.56909529 6 10 C5.34 10.66 4.68 11.32 4 12 C2.18757677 7.9811485 0.66498383 4.38889325 0 0 Z " fill="#3D2E1D" transform="translate(521,80)"/>
<path d="M0 0 C0.99 0 1.98 0 3 0 C2.67 1.65 2.34 3.3 2 5 C0.68 5.33 -0.64 5.66 -2 6 C-1.125 1.125 -1.125 1.125 0 0 Z " fill="#99865E" transform="translate(241,38)"/>
<path d="M0 0 C1.32 0.33 2.64 0.66 4 1 C4 1.66 4 2.32 4 3 C5.45833358 4.62514468 5.45833358 4.62514468 7 6 C5.35 6.33 3.7 6.66 2 7 C1.34 4.69 0.68 2.38 0 0 Z " fill="#291D0C" transform="translate(131,107)"/>
<path d="M0 0 C4.40114397 0.50298788 6.71195019 2.08772731 10 5 C6.28111761 4.49287967 3.26545761 3.88391785 0 2 C0 1.34 0 0.68 0 0 Z " fill="#DDD59F" transform="translate(79,101)"/>
<path d="M0 0 C2.31 0 4.62 0 7 0 C7 3 7 3 6 5 C5.01 5 4.02 5 3 5 C1.3125 2.5 1.3125 2.5 0 0 Z " fill="#2B2213" transform="translate(121,90)"/>
<path d="M0 0 C2.12508244 3.18762365 2.5020163 5.26512223 3 9 C2.01 9 1.02 9 0 9 C-1.15941038 5.52176885 -0.70820884 3.54104422 0 0 Z " fill="#3C3426" transform="translate(461,102)"/>
<path d="M0 0 C0 1.65 0 3.3 0 5 C-1.65 5 -3.3 5 -5 5 C-5 4.01 -5 3.02 -5 2 C-2 0 -2 0 0 0 Z " fill="#231608" transform="translate(141,100)"/>
<path d="M0 0 C0.66 0.33 1.32 0.66 2 1 C2 3.31 2 5.62 2 8 C1.34 8 0.68 8 0 8 C-0.33 8.66 -0.66 9.32 -1 10 C-2.31223496 6.06329512 -1.24296256 3.87511856 0 0 Z " fill="#383325" transform="translate(452,81)"/>
<path d="M0 0 C3.37641082 3.37641082 4.27450305 5.64517436 6 10 C4.68 9.67 3.36 9.34 2 9 C1.34 6.03 0.68 3.06 0 0 Z " fill="#34321C" transform="translate(337,68)"/>
<path d="M0 0 C0.99 0 1.98 0 3 0 C3.33 0.99 3.66 1.98 4 3 C2.68 3 1.36 3 0 3 C0 4.32 0 5.64 0 7 C-0.66 7 -1.32 7 -2 7 C-1.125 1.125 -1.125 1.125 0 0 Z " fill="#2C271C" transform="translate(510,105)"/>
<path d="M0 0 C0.66 1.32 1.32 2.64 2 4 C-0.64 4 -3.28 4 -6 4 C-4 1 -4 1 -1.875 0.3125 C-1.25625 0.209375 -0.6375 0.10625 0 0 Z " fill="#7B5A35" transform="translate(141,104)"/>
<path d="M0 0 C2.35953094 2.35953094 2.49141413 3.77895617 3 7 C1.68 7.33 0.36 7.66 -1 8 C-1.125 2.25 -1.125 2.25 0 0 Z " fill="#BEAC77" transform="translate(305,99)"/>
<path d="M0 0 C2.97 0 5.94 0 9 0 C8.67 1.32 8.34 2.64 8 4 C6.35 4 4.7 4 3 4 C3.99 3.67 4.98 3.34 6 3 C6 2.34 6 1.68 6 1 C4.02 1 2.04 1 0 1 C0 0.67 0 0.34 0 0 Z " fill="#433527" transform="translate(543,87)"/>
<path d="M0 0 C0.33 0 0.66 0 1 0 C1.33 3.3 1.66 6.6 2 10 C1.01 10 0.02 10 -1 10 C-0.67 6.7 -0.34 3.4 0 0 Z " fill="#292513" transform="translate(92,70)"/>
<path d="M0 0 C0.66 0.99 1.32 1.98 2 3 C-0.33333333 5.33333333 -2.66666667 7.66666667 -5 10 C-5 8.35 -5 6.7 -5 5 C-3.35 4.34 -1.7 3.68 0 3 C0 2.01 0 1.02 0 0 Z " fill="#292514" transform="translate(99,55)"/>
<path d="M0 0 C0.33 0 0.66 0 1 0 C1.125 2.875 1.125 2.875 1 6 C0.34 6.66 -0.32 7.32 -1 8 C-1.66 6.68 -2.32 5.36 -3 4 C-2.02727325 2.64664105 -1.0260734 1.31337396 0 0 Z " fill="#C1B078" transform="translate(447,91)"/>
<path d="M0 0 C0.99 0.99 1.98 1.98 3 3 C2.67 3.99 2.34 4.98 2 6 C1.34 6 0.68 6 0 6 C-0.33 6.66 -0.66 7.32 -1 8 C-2.2077558 4.37673261 -1.54311128 3.35853631 0 0 Z " fill="#292B28" transform="translate(521,84)"/>
<path d="M0 0 C0.81210938 0.29003906 1.62421875 0.58007812 2.4609375 0.87890625 C3.27820313 1.16636719 4.09546875 1.45382813 4.9375 1.75 C5.56398438 1.97816406 6.19046875 2.20632812 6.8359375 2.44140625 C6.8359375 2.77140625 6.8359375 3.10140625 6.8359375 3.44140625 C0.4359375 3.81063702 0.4359375 3.81063702 -2.6015625 1.94140625 C-3.1171875 1.44640625 -3.6328125 0.95140625 -4.1640625 0.44140625 C-2.1640625 -0.55859375 -2.1640625 -0.55859375 0 0 Z " fill="#BFB883" transform="translate(104.1640625,85.55859375)"/>
<path d="M0 0 C-0.33 2.31 -0.66 4.62 -1 7 C-1.66 7 -2.32 7 -3 7 C-3 5.02 -3 3.04 -3 1 C-1 0 -1 0 0 0 Z " fill="#C5B076" transform="translate(452,79)"/>
<path d="M0 0 C0.66 0.99 1.32 1.98 2 3 C1.34 4.32 0.68 5.64 0 7 C-0.99 7 -1.98 7 -3 7 C-1.125 1.125 -1.125 1.125 0 0 Z " fill="#DFD59B" transform="translate(349,62)"/>
<path d="M0 0 C0.66 0 1.32 0 2 0 C1.01 3.3 0.02 6.6 -1 10 C-1.33 10 -1.66 10 -2 10 C-2.25 3.375 -2.25 3.375 0 0 Z " fill="#D2CC94" transform="translate(99,64)"/>
<path d="M0 0 C2.99324263 1.0975223 3.84610901 1.67682892 5.25 4.625 C5.4975 5.40875 5.745 6.1925 6 7 C2.58841744 5.86280581 1.88145399 4.95657056 0 2 C0 1.34 0 0.68 0 0 Z " fill="#AD9669" transform="translate(117,61)"/>
<path d="M0 0 C3.3 0 6.6 0 10 0 C7.4345406 2.5654594 5.52313332 2.54046087 2 3 C2 2.34 2 1.68 2 1 C1.34 0.67 0.68 0.34 0 0 Z " fill="#B09C6D" transform="translate(108,42)"/>
<path d="M0 0 C0.99 0.33 1.98 0.66 3 1 C2.67 1.33 2.34 1.66 2 2 C2.99 2.33 3.98 2.66 5 3 C5 3.66 5 4.32 5 5 C3.35 5 1.7 5 0 5 C-0.5625 3.0625 -0.5625 3.0625 -1 1 C-0.67 0.67 -0.34 0.34 0 0 Z " fill="#2B2724" transform="translate(427,37)"/>
<path d="M0 0 C2.64 0.33 5.28 0.66 8 1 C6 3 6 3 2.375 3.125 C1.26125 3.08375 0.1475 3.0425 -1 3 C-0.67 2.01 -0.34 1.02 0 0 Z " fill="#1B190A" transform="translate(112,38)"/>
<path d="M0 0 C1.125 3.75 1.125 3.75 0 6 C-0.99 6 -1.98 6 -3 6 C-3 4.68 -3 3.36 -3 2 C-2.01 1.34 -1.02 0.68 0 0 Z " fill="#C5B37B" transform="translate(444,102)"/>
<path d="M0 0 C0.66 0.33 1.32 0.66 2 1 C1.67 2.65 1.34 4.3 1 6 C0.01 6 -0.98 6 -2 6 C-1.125 1.125 -1.125 1.125 0 0 Z " fill="#B79A68" transform="translate(264,102)"/>
<path d="M0 0 C0.99 1.32 1.98 2.64 3 4 C2.01 4.99 1.02 5.98 0 7 C-1 6 -1 6 -1.125 3.5 C-1 1 -1 1 0 0 Z " fill="#28282B" transform="translate(485,87)"/>
<path d="M0 0 C0.33 0.99 0.66 1.98 1 3 C-2.465 4.485 -2.465 4.485 -6 6 C-6 5.01 -6 4.02 -6 3 C-2.66666667 0 -2.66666667 0 0 0 Z " fill="#221F10" transform="translate(126,83)"/>
<path d="M0 0 C0.33 0 0.66 0 1 0 C1.25 2.75 1.25 2.75 1 6 C-1 8.375 -1 8.375 -3 10 C-2.39009109 6.44219804 -1.4216319 3.3171411 0 0 Z " fill="#342C13" transform="translate(121,70)"/>
<path d="M0 0 C2.31 0.33 4.62 0.66 7 1 C6.01 2.485 6.01 2.485 5 4 C2.525 3.01 2.525 3.01 0 2 C0 1.34 0 0.68 0 0 Z " fill="#BCB284" transform="translate(73,44)"/>
<path d="M0 0 C0.99 0 1.98 0 3 0 C1.8451389 3.46458331 0.01986134 5.970208 -2 9 C-1.125 1.125 -1.125 1.125 0 0 Z " fill="#3E3524" transform="translate(462,37)"/>
</svg>
